<svg width="156" height="73" viewBox="0 0 156 73" fill="none" xmlns="http://www.w3.org/2000/svg">
<circle cx="130.947" cy="26.0877" r="18.0795" stroke="white" stroke-width="0.516556"/>
<path d="M31.244 51.1963C30.0663 51.1963 29.0979 50.6598 28.3389 49.5867C27.6061 48.4875 27.2397 47.1265 27.2397 45.5038C27.2397 43.5409 27.3705 41.7481 27.6323 40.1255C27.894 38.4766 28.3258 36.7362 28.9278 34.9041C29.1895 34.1189 29.5559 33.5562 30.027 33.216C30.4981 32.8758 31.244 32.7056 32.2647 32.7056C32.8405 32.7056 33.2331 32.7972 33.4425 32.9804C33.678 33.1637 33.7958 33.4385 33.7958 33.8049C33.7958 34.0142 33.6519 34.7209 33.364 35.9248C33.1022 36.8932 32.8929 37.77 32.7358 38.5551C32.2124 41.3032 31.9507 43.1353 31.9507 44.0513C31.9507 44.6009 32.0161 44.9935 32.147 45.229C32.2778 45.4384 32.4872 45.5431 32.7751 45.5431C33.1677 45.5431 33.6519 45.1505 34.2277 44.3653C34.8296 43.5802 35.4577 42.3893 36.112 40.7928C36.7925 39.1963 37.4468 37.2334 38.075 34.9041C38.2843 34.1189 38.5984 33.5562 39.0172 33.216C39.4621 32.8758 40.1164 32.7056 40.9801 32.7056C41.582 32.7056 42.0008 32.7842 42.2363 32.9412C42.4719 33.0721 42.5897 33.3338 42.5897 33.7264C42.5897 34.3807 42.2625 36.1735 41.6082 39.1047C40.8754 42.4548 40.509 44.5224 40.509 45.3075C40.509 45.8048 40.6137 46.1974 40.823 46.4853C41.0324 46.747 41.3072 46.8779 41.6475 46.8779C42.1709 46.8779 42.786 46.5638 43.4926 45.9357C44.2254 45.2814 45.1938 44.2345 46.3977 42.795C46.7118 42.4286 47.0651 42.2454 47.4577 42.2454C47.7979 42.2454 48.0597 42.4024 48.2429 42.7165C48.4522 43.0306 48.5569 43.4624 48.5569 44.012C48.5569 45.0589 48.3083 45.8703 47.811 46.446C46.6856 47.8332 45.4686 48.9717 44.16 49.8615C42.8776 50.7514 41.4119 51.1963 39.7631 51.1963C38.5068 51.1963 37.5777 50.7121 36.9757 49.7437C36.3999 48.7754 36.112 47.4144 36.112 45.6609C35.6671 47.4406 34.9997 48.8146 34.1099 49.783C33.22 50.7252 32.2647 51.1963 31.244 51.1963ZM66.3376 42.2454C66.6778 42.2454 66.9395 42.4024 67.1227 42.7165C67.3321 43.0306 67.4368 43.4624 67.4368 44.012C67.4368 45.0589 67.1881 45.8703 66.6909 46.446C65.5655 47.8332 64.3485 48.9717 63.0399 49.8615C61.7574 50.7514 60.2918 51.1963 58.6429 51.1963C57.2558 51.1963 56.1304 50.699 55.2667 49.7045C53.7749 50.6728 52.2177 51.1701 50.595 51.1963C50.2547 56.2475 49.4827 60.4612 48.2787 63.8375C47.0748 67.2398 45.3082 68.941 42.9789 68.941C41.5656 68.941 40.5187 68.4307 39.8382 67.41C39.1577 66.3892 38.8175 64.9759 38.8175 63.1701C38.8175 60.6052 39.4064 57.6085 40.5841 54.1799C41.7619 50.7775 43.5808 47.0218 46.041 42.9128C46.041 39.0917 46.0148 36.4352 45.9625 34.9434C45.9363 34.1844 46.2373 33.5824 46.8654 33.1375C47.4936 32.6926 48.2787 32.4701 49.2209 32.4701C49.7706 32.4701 50.1631 32.5879 50.3987 32.8234C50.6604 33.0328 50.8044 33.4646 50.8305 34.1189C50.8305 34.7732 50.8436 35.2574 50.8698 35.5715C51.7073 34.5246 52.5317 33.7787 53.3431 33.3338C54.1544 32.8627 55.0181 32.6271 55.9341 32.6271C57.3997 32.6271 58.5906 33.216 59.5066 34.3937C60.4488 35.5715 60.9199 37.1157 60.9199 39.0262C60.9199 40.4133 60.6974 41.7612 60.2525 43.0698C59.8076 44.3784 59.1925 45.5693 58.4074 46.6423C58.957 46.7994 59.415 46.8779 59.7814 46.8779C60.6451 46.8779 61.4695 46.5638 62.2547 45.9357C63.0399 45.3075 64.0475 44.2607 65.2776 42.795C65.5916 42.4286 65.945 42.2454 66.3376 42.2454ZM50.7913 47.4275C51.7335 47.2181 52.5972 46.7078 53.3823 45.8964C54.1937 45.0589 54.8349 44.0382 55.306 42.8343C55.7771 41.6042 56.0126 40.3217 56.0126 38.987C56.0126 38.2018 55.8556 37.6129 55.5415 37.2203C55.2275 36.8016 54.8087 36.5922 54.2853 36.5922C53.3431 36.5922 52.2046 37.5868 50.8698 39.5758C50.8436 40.7274 50.8305 42.4155 50.8305 44.6402C50.8305 45.8441 50.8174 46.7732 50.7913 47.4275ZM43.2929 65.0937C43.9996 65.0937 44.5885 63.5496 45.0596 60.4612C45.5307 57.3991 45.8316 53.578 45.9625 48.9978C44.8371 51.615 43.9472 54.1145 43.2929 56.4962C42.6386 58.8778 42.3115 60.88 42.3115 62.5027C42.3115 63.3402 42.4162 63.9814 42.6255 64.4263C42.8088 64.8713 43.0312 65.0937 43.2929 65.0937ZM69.4172 30.1146C68.3179 30.1146 67.4935 29.866 66.9439 29.3687C66.3943 28.8452 66.1195 28.1255 66.1195 27.2095C66.1195 26.2935 66.4728 25.5345 67.1795 24.9325C67.9123 24.3044 68.8152 23.9903 69.8883 23.9903C70.8566 23.9903 71.6418 24.2259 72.2438 24.697C72.8457 25.1681 73.1467 25.8354 73.1467 26.6991C73.1467 27.746 72.8065 28.5835 72.126 29.2117C71.4455 29.8136 70.5426 30.1146 69.4172 30.1146ZM69.1031 51.1963C67.4019 51.1963 66.1587 50.5943 65.3736 49.3904C64.6146 48.1865 64.2351 46.59 64.2351 44.6009C64.2351 43.4232 64.379 41.9183 64.6669 40.0862C64.981 38.228 65.3736 36.5006 65.8447 34.9041C66.0802 34.0666 66.3943 33.4908 66.7869 33.1767C67.1795 32.8627 67.8076 32.7056 68.6713 32.7056C70.0061 32.7056 70.6734 33.1506 70.6734 34.0404C70.6734 34.6947 70.4248 36.2127 69.9275 38.5944C69.2994 41.4733 68.9853 43.4232 68.9853 44.4439C68.9853 45.229 69.09 45.831 69.2994 46.2497C69.5088 46.6685 69.8621 46.8779 70.3594 46.8779C70.8305 46.8779 71.4194 46.5507 72.126 45.8964C72.8326 45.2421 73.7748 44.2083 74.9526 42.795C75.2667 42.4286 75.62 42.2454 76.0126 42.2454C76.3528 42.2454 76.6145 42.4024 76.7977 42.7165C77.0071 43.0306 77.1118 43.4624 77.1118 44.012C77.1118 45.0589 76.8632 45.8703 76.3659 46.446C73.7748 49.6129 71.3539 51.1963 69.1031 51.1963ZM91.4448 42.2454C91.785 42.2454 92.0467 42.4024 92.2299 42.7165C92.4393 43.0306 92.544 43.4624 92.544 44.012C92.544 45.0589 92.2954 45.8703 91.7981 46.446C90.6727 47.8332 89.4426 48.9717 88.1078 49.8615C86.773 50.7514 85.2419 51.1963 83.5146 51.1963C78.1755 51.1963 75.5059 47.4406 75.5059 39.9292C75.5059 38.7776 75.5452 37.6129 75.6237 36.4352H74.0926C73.3074 36.4352 72.7709 36.2912 72.483 36.0033C72.2213 35.7154 72.0904 35.2574 72.0904 34.6293C72.0904 33.1637 72.6793 32.4308 73.857 32.4308H76.0948C76.5397 29.5519 77.2202 26.9216 78.1362 24.5399C79.0522 22.1582 80.1515 20.2608 81.4339 18.8475C82.7425 17.4342 84.1427 16.7275 85.6345 16.7275C86.7338 16.7275 87.5974 17.2117 88.2256 18.1801C88.8537 19.1484 89.1678 20.3655 89.1678 21.8311C89.1678 25.8878 87.4666 29.421 84.0642 32.4308H88.4611C88.8799 32.4308 89.1809 32.5224 89.3641 32.7056C89.5473 32.8888 89.6389 33.2291 89.6389 33.7264C89.6389 35.5322 88.1601 36.4352 85.2027 36.4352H80.4132C80.3608 37.7438 80.3347 38.7645 80.3347 39.4973C80.3347 42.2192 80.6487 44.1298 81.2769 45.229C81.9312 46.3283 82.9519 46.8779 84.339 46.8779C85.4644 46.8779 86.459 46.5376 87.3226 45.8572C88.1863 45.1767 89.207 44.156 90.3848 42.795C90.6988 42.4286 91.0522 42.2454 91.4448 42.2454ZM84.5746 20.4963C84.182 20.4963 83.737 20.9936 83.2398 21.9881C82.7687 22.9565 82.3107 24.3175 81.8657 26.071C81.447 27.7984 81.0937 29.722 80.8058 31.842C82.3499 30.5072 83.5015 29.0154 84.2605 27.3665C85.0457 25.6915 85.4382 24.1735 85.4382 22.8126C85.4382 21.2684 85.1503 20.4963 84.5746 20.4963ZM106.857 42.2454C107.197 42.2454 107.459 42.4024 107.642 42.7165C107.851 43.0306 107.956 43.4624 107.956 44.012C107.956 45.0589 107.707 45.8703 107.21 46.446C106.242 47.6238 104.868 48.7099 103.088 49.7045C101.334 50.699 99.45 51.1963 97.4347 51.1963C94.6866 51.1963 92.5536 50.4504 91.0356 48.9586C89.5176 47.4668 88.7586 45.4253 88.7586 42.8343C88.7586 41.0284 89.1381 39.3534 89.8971 37.8092C90.6561 36.2389 91.703 34.9957 93.0378 34.0797C94.3987 33.1637 95.9298 32.7056 97.631 32.7056C99.149 32.7056 100.366 33.1637 101.282 34.0797C102.198 34.9695 102.656 36.1865 102.656 37.7307C102.656 39.5366 102.002 41.0938 100.693 42.4024C99.4107 43.6849 97.2253 44.7056 94.137 45.4646C94.7913 46.6685 96.0345 47.2705 97.8665 47.2705C99.0443 47.2705 100.379 46.8648 101.871 46.0535C103.389 45.2159 104.697 44.1298 105.797 42.795C106.111 42.4286 106.464 42.2454 106.857 42.2454ZM96.9636 36.553C95.9952 36.553 95.1708 37.1157 94.4903 38.2411C93.836 39.3665 93.5089 40.7274 93.5089 42.3239V42.4024C95.053 42.036 96.27 41.4864 97.1599 40.7536C98.0498 40.0208 98.4947 39.1702 98.4947 38.2018C98.4947 37.7045 98.3507 37.3119 98.0628 37.0241C97.8011 36.71 97.4347 36.553 96.9636 36.553ZM120.62 38.084C121.196 38.084 121.68 38.2934 122.072 38.7122C122.491 39.1047 122.7 39.602 122.7 40.204C122.7 40.5442 122.622 40.9106 122.465 41.3032C122.046 42.2716 121.457 43.0829 120.698 43.7372C119.939 44.3915 119.102 44.7187 118.186 44.7187C117.453 44.7187 116.825 44.457 116.301 43.9335C115.804 43.4101 115.555 42.7034 115.555 41.8136C115.555 41.3163 115.582 40.7798 115.634 40.204C115.686 39.7852 115.713 39.4973 115.713 39.3403C115.713 39.1309 115.66 38.9739 115.555 38.8692C115.477 38.7645 115.372 38.7122 115.241 38.7122C114.875 38.7122 114.378 39.1571 113.75 40.0469C113.121 40.9106 112.493 42.0622 111.865 43.5017C111.237 44.9411 110.727 46.4591 110.334 48.0556C110.046 49.3119 109.719 50.1494 109.353 50.5682C108.986 50.9869 108.384 51.1963 107.547 51.1963C106.552 51.1963 105.846 50.6728 105.427 49.626C105.034 48.5791 104.838 46.9041 104.838 44.6009C104.838 41.1985 105.322 37.9662 106.291 34.9041C106.526 34.1451 106.906 33.5955 107.429 33.2553C107.979 32.8888 108.738 32.7056 109.706 32.7056C110.229 32.7056 110.596 32.7711 110.805 32.9019C111.015 33.0328 111.119 33.2814 111.119 33.6478C111.119 34.0666 110.923 35.0088 110.53 36.4744C110.269 37.5213 110.059 38.4373 109.902 39.2225C109.745 40.0077 109.614 40.9761 109.51 42.1276C110.373 39.8768 111.342 38.0448 112.415 36.6315C113.488 35.2182 114.535 34.2105 115.555 33.6086C116.576 33.0066 117.505 32.7056 118.343 32.7056C119.102 32.7056 119.678 32.9281 120.07 33.373C120.489 33.7918 120.698 34.4199 120.698 35.2574C120.698 35.7547 120.554 36.6969 120.266 38.084H120.62Z" fill="white"/>
<path d="M28.3389 49.5867L27.9091 49.8732L27.9131 49.8792L27.9172 49.885L28.3389 49.5867ZM27.6323 40.1255L28.1422 40.2077L28.1424 40.2064L27.6323 40.1255ZM28.9278 34.9041L28.4377 34.7408L28.437 34.7429L28.9278 34.9041ZM30.027 33.216L30.3295 33.6348H30.3295L30.027 33.216ZM33.4425 32.9804L33.1023 33.3692L33.1136 33.379L33.1253 33.3882L33.4425 32.9804ZM33.364 35.9248L33.8626 36.0596L33.8646 36.0523L33.8664 36.045L33.364 35.9248ZM32.7358 38.5551L32.2293 38.4538L32.2284 38.4585L32.7358 38.5551ZM32.147 45.229L31.6954 45.4799L31.7019 45.4915L31.7089 45.5028L32.147 45.229ZM34.2276 44.3653L33.8176 44.051L33.8111 44.0599L34.2276 44.3653ZM36.112 40.7928L35.6368 40.5903L35.6341 40.597L36.112 40.7928ZM38.075 34.9041L38.5737 35.0386L38.5741 35.0372L38.075 34.9041ZM39.0172 33.216L38.7034 32.8057L38.6973 32.8103L38.6914 32.8151L39.0172 33.216ZM42.2363 32.9412L41.9498 33.371L41.9672 33.3826L41.9855 33.3927L42.2363 32.9412ZM41.6082 39.1047L41.1041 38.9922L41.1036 38.9944L41.6082 39.1047ZM40.823 46.4853L40.4053 46.7891L40.4123 46.7987L40.4197 46.808L40.823 46.4853ZM43.4926 45.9357L43.8358 46.3218L43.8366 46.321L43.4926 45.9357ZM46.3977 42.795L46.0055 42.4588L46.0015 42.4636L46.3977 42.795ZM48.2429 42.7165L47.7967 42.9768L47.8045 42.9902L47.8131 43.003L48.2429 42.7165ZM47.811 46.446L47.4201 46.1084L47.4149 46.1144L47.4099 46.1206L47.811 46.446ZM44.16 49.8615L43.8695 49.4343L43.8655 49.4371L44.16 49.8615ZM36.9757 49.7437L36.5316 50.0078L36.537 50.0164L36.9757 49.7437ZM36.112 45.6609H36.6286L35.6109 45.5356L36.112 45.6609ZM34.1099 49.783L34.4855 50.1377L34.4902 50.1325L34.1099 49.783ZM31.244 50.6797C30.2553 50.6797 29.4359 50.243 28.7606 49.2884L27.9172 49.885C28.76 51.0765 29.8772 51.7128 31.244 51.7128V50.6797ZM28.7687 49.3002C28.1042 48.3034 27.7562 47.048 27.7562 45.5038H26.7231C26.7231 47.205 27.108 48.6715 27.9091 49.8732L28.7687 49.3002ZM27.7562 45.5038C27.7562 43.5634 27.8856 41.7986 28.1422 40.2077L27.1223 40.0432C26.8554 41.6977 26.7231 43.5185 26.7231 45.5038H27.7562ZM28.1424 40.2064C28.3992 38.5886 28.8239 36.8751 29.4185 35.0653L28.437 34.7429C27.8278 36.5972 27.3887 38.3646 27.1221 40.0445L28.1424 40.2064ZM29.4178 35.0675C29.6593 34.3429 29.9763 33.8899 30.3295 33.6348L29.7246 32.7972C29.1356 33.2226 28.7197 33.8949 28.4377 34.7408L29.4178 35.0675ZM30.3295 33.6348C30.6678 33.3904 31.2799 33.2222 32.2647 33.2222V32.1891C31.2082 32.1891 30.3285 32.3611 29.7246 32.7972L30.3295 33.6348ZM32.2647 33.2222C32.8275 33.2222 33.0465 33.3204 33.1023 33.3692L33.7826 32.5917C33.4197 32.2741 32.8536 32.1891 32.2647 32.1891V33.2222ZM33.1253 33.3882C33.2064 33.4512 33.2793 33.5576 33.2793 33.8049H34.3124C34.3124 33.3193 34.1497 32.8761 33.7596 32.5727L33.1253 33.3882ZM33.2793 33.8049C33.2793 33.8038 33.2793 33.807 33.2787 33.8158C33.2781 33.8243 33.2771 33.836 33.2755 33.8513C33.2721 33.8823 33.2667 33.9231 33.2585 33.975C33.2422 34.0788 33.2169 34.2161 33.1817 34.3888C33.1114 34.7338 33.005 35.205 32.8616 35.8047L33.8664 36.045C34.0109 35.4407 34.1203 34.9566 34.194 34.595C34.2631 34.2556 34.3124 33.972 34.3124 33.8049H33.2793ZM32.8653 35.79C32.6013 36.7669 32.3891 37.655 32.2293 38.4538L33.2424 38.6564C33.3967 37.8849 33.6032 37.0195 33.8626 36.0596L32.8653 35.79ZM32.2284 38.4585C31.7066 41.1977 31.4341 43.0781 31.4341 44.0513H32.4672C32.4672 43.1924 32.7181 41.4087 33.2433 38.6518L32.2284 38.4585ZM31.4341 44.0513C31.4341 44.6152 31.4966 45.1221 31.6954 45.4799L32.5985 44.9782C32.5356 44.8649 32.4672 44.5867 32.4672 44.0513H31.4341ZM31.7089 45.5028C31.9512 45.8905 32.3438 46.0597 32.7751 46.0597V45.0265C32.6306 45.0265 32.6044 44.9864 32.585 44.9553L31.7089 45.5028ZM32.7751 46.0597C33.1418 46.0597 33.4746 45.8797 33.758 45.6499C34.0481 45.4147 34.343 45.0815 34.6442 44.6708L33.8111 44.0599C33.5365 44.4343 33.3015 44.69 33.1073 44.8474C32.9065 45.0102 32.8009 45.0265 32.7751 45.0265V46.0597ZM34.6376 44.6796C35.2806 43.841 35.9292 42.6012 36.59 40.9887L35.6341 40.597C34.9863 42.1775 34.3786 43.3194 33.8177 44.0511L34.6376 44.6796ZM36.5872 40.9954C37.28 39.3701 37.9415 37.3829 38.5737 35.0386L37.5762 34.7696C36.9521 37.084 36.3051 39.0226 35.6369 40.5903L36.5872 40.9954ZM38.5741 35.0372C38.7688 34.307 39.0418 33.8615 39.3429 33.6169L38.6914 32.8151C38.155 33.2509 37.7999 33.9309 37.5758 34.771L38.5741 35.0372ZM39.3309 33.6263C39.6486 33.3834 40.1719 33.2222 40.9801 33.2222V32.1891C40.0609 32.1891 39.2756 32.3681 38.7034 32.8057L39.3309 33.6263ZM40.9801 33.2222C41.5721 33.2222 41.8524 33.306 41.9498 33.371L42.5229 32.5114C42.1492 32.2623 41.592 32.1891 40.9801 32.1891V33.2222ZM41.9855 33.3927C41.9994 33.4005 42.0139 33.4112 42.0303 33.4476C42.0503 33.4921 42.0731 33.5778 42.0731 33.7264H43.1062C43.1062 33.2412 42.9557 32.7499 42.4872 32.4896L41.9855 33.3927ZM42.0731 33.7264C42.0731 33.9999 42.0007 34.5673 41.8361 35.4689C41.6743 36.3559 41.4305 37.5295 41.1041 38.9922L42.1124 39.2173C42.4402 37.7487 42.6872 36.5603 42.8525 35.6544C43.0151 34.7633 43.1062 34.1071 43.1062 33.7264H42.0731ZM41.1036 38.9944C40.7365 40.6725 40.4601 42.0344 40.2752 43.0778C40.0926 44.1079 39.9924 44.8634 39.9924 45.3075H41.0255C41.0255 44.9666 41.1086 44.2956 41.2924 43.2581C41.4739 42.234 41.7471 40.887 42.1128 39.2151L41.1036 38.9944ZM39.9924 45.3075C39.9924 45.8718 40.1107 46.384 40.4053 46.7891L41.2408 46.1815C41.1166 46.0108 41.0255 45.7378 41.0255 45.3075H39.9924ZM40.4197 46.808C40.7288 47.1944 41.1531 47.3944 41.6475 47.3944V46.3613C41.4614 46.3613 41.336 46.2996 41.2264 46.1626L40.4197 46.808ZM41.6475 47.3944C42.366 47.3944 43.1029 46.9732 43.8358 46.3218L43.1494 45.5496C42.469 46.1545 41.9758 46.3613 41.6475 46.3613V47.3944ZM43.8366 46.321C44.598 45.6412 45.5856 44.5712 46.794 43.1264L46.0015 42.4636C44.802 43.8978 43.8528 44.9216 43.1486 45.5504L43.8366 46.321ZM46.7899 43.1312C47.0304 42.8507 47.2499 42.762 47.4577 42.762V41.7288C46.8803 41.7288 46.3932 42.0065 46.0055 42.4588L46.7899 43.1312ZM47.4577 42.762C47.5993 42.762 47.6983 42.8081 47.7967 42.9768L48.689 42.4562C48.421 41.9968 47.9965 41.7288 47.4577 41.7288V42.762ZM47.8131 43.003C47.9455 43.2018 48.0404 43.5202 48.0404 44.012H49.0735C49.0735 43.4046 48.9589 42.8594 48.6727 42.43L47.8131 43.003ZM48.0404 44.012C48.0404 44.9816 47.8103 45.6566 47.4201 46.1084L48.202 46.7837C48.8063 46.084 49.0735 45.1363 49.0735 44.012H48.0404ZM47.4099 46.1206C46.3122 47.4736 45.1315 48.5762 43.8695 49.4344L44.4505 50.2887C45.8057 49.3671 47.059 48.1928 48.2122 46.7715L47.4099 46.1206ZM43.8655 49.4371C42.6746 50.2635 41.3129 50.6797 39.7631 50.6797V51.7128C41.5109 51.7128 43.0805 51.2392 44.4545 50.2859L43.8655 49.4371ZM39.7631 50.6797C38.6636 50.6797 37.9112 50.2702 37.4144 49.471L36.537 50.0164C37.2442 51.154 38.35 51.7128 39.7631 51.7128V50.6797ZM37.4197 49.4797C36.9109 48.6239 36.6286 47.3688 36.6286 45.6609H35.5955C35.5955 47.46 35.889 48.9268 36.5317 50.0077L37.4197 49.4797ZM35.6109 45.5356C35.1791 47.2629 34.5425 48.5487 33.7295 49.4335L34.4902 50.1325C35.4569 49.0805 36.1552 47.6182 36.6132 45.7862L35.6109 45.5356ZM33.7343 49.4283C32.9142 50.2967 32.0865 50.6797 31.244 50.6797V51.7128C32.4429 51.7128 33.5259 51.1536 34.4854 50.1377L33.7343 49.4283ZM67.1227 42.7165L66.6765 42.9768L66.6843 42.9902L66.6929 43.003L67.1227 42.7165ZM66.6909 46.446L66.2999 46.1084L66.2947 46.1144L66.2897 46.1206L66.6909 46.446ZM63.0399 49.8615L62.7494 49.4343L62.7454 49.4371L63.0399 49.8615ZM55.2667 49.7045L55.6567 49.3658L55.3622 49.0266L54.9855 49.2712L55.2667 49.7045ZM50.595 51.1963L50.5867 50.6798L50.1115 50.6875L50.0796 51.1616L50.595 51.1963ZM48.2787 63.8375L47.7922 63.664L47.7918 63.6651L48.2787 63.8375ZM40.5841 54.1799L40.096 54.0109L40.0956 54.0121L40.5841 54.1799ZM46.041 42.9128L46.4842 43.1781L46.5576 43.0556V42.9128H46.041ZM45.9625 34.9434L45.4463 34.9612L45.4463 34.9615L45.9625 34.9434ZM46.8654 33.1375L47.164 33.559V33.559L46.8654 33.1375ZM50.3987 32.8234L50.0334 33.1887L50.0537 33.2089L50.076 33.2268L50.3987 32.8234ZM50.8305 34.1189H51.3471V34.1086L51.3467 34.0983L50.8305 34.1189ZM50.8698 35.5715L50.355 35.6144L50.4627 36.9072L51.2732 35.8942L50.8698 35.5715ZM53.3431 33.3338L53.5915 33.7868L53.6024 33.7805L53.3431 33.3338ZM59.5066 34.3937L59.0988 34.7109L59.1032 34.7164L59.5066 34.3937ZM60.2525 43.0698L59.7635 42.9035L60.2525 43.0698ZM58.4074 46.6423L57.9905 46.3373L57.5529 46.9354L58.2655 47.139L58.4074 46.6423ZM65.2776 42.795L64.8854 42.4588L64.8819 42.4629L65.2776 42.795ZM50.7913 47.4275L50.2751 47.4068L50.2483 48.0773L50.9033 47.9318L50.7913 47.4275ZM53.3823 45.8964L53.0113 45.537L53.0111 45.5372L53.3823 45.8964ZM55.306 42.8343L55.787 43.0225L55.7884 43.019L55.306 42.8343ZM55.5415 37.2203L55.1283 37.5303L55.1331 37.5367L55.1382 37.543L55.5415 37.2203ZM50.8698 39.5758L50.4409 39.288L50.3568 39.4133L50.3534 39.5641L50.8698 39.5758ZM45.0596 60.4612L44.549 60.3827L44.5489 60.3834L45.0596 60.4612ZM45.9625 48.9978L46.4788 49.0126L45.488 48.7938L45.9625 48.9978ZM43.2929 56.4962L42.7948 56.3593L43.2929 56.4962ZM42.6255 64.4263L43.1032 64.2297L43.0984 64.2179L43.0929 64.2064L42.6255 64.4263ZM66.3376 42.762C66.4792 42.762 66.5781 42.8081 66.6765 42.9768L67.5689 42.4562C67.3009 41.9968 66.8764 41.7288 66.3376 41.7288V42.762ZM66.6929 43.003C66.8254 43.2018 66.9202 43.5202 66.9202 44.012H67.9533C67.9533 43.4046 67.8388 42.8594 67.5525 42.43L66.6929 43.003ZM66.9202 44.012C66.9202 44.9816 66.6902 45.6566 66.2999 46.1084L67.0818 46.7837C67.6861 46.084 67.9533 45.1363 67.9533 44.012H66.9202ZM66.2897 46.1206C65.1921 47.4736 64.0114 48.5762 62.7494 49.4344L63.3303 50.2887C64.6855 49.3671 65.9389 48.1928 67.092 46.7715L66.2897 46.1206ZM62.7454 49.4371C61.5544 50.2635 60.1928 50.6797 58.6429 50.6797V51.7128C60.3908 51.7128 61.9604 51.2392 63.3343 50.2859L62.7454 49.4371ZM58.6429 50.6797C57.3964 50.6797 56.4165 50.2407 55.6567 49.3658L54.8767 50.0432C55.8443 51.1573 57.1152 51.7128 58.6429 51.7128V50.6797ZM54.9855 49.2712C53.5669 50.192 52.1031 50.6553 50.5867 50.6798L50.6033 51.7128C52.3322 51.6849 53.9829 51.1537 55.548 50.1378L54.9855 49.2712ZM50.0796 51.1616C49.7413 56.1833 48.9751 60.3466 47.7922 63.664L48.7653 64.011C49.9902 60.5759 50.7681 56.3118 51.1104 51.231L50.0796 51.1616ZM47.7918 63.6651C46.6139 66.9938 44.9759 68.4245 42.9789 68.4245V69.4576C45.6405 69.4576 47.5357 67.4859 48.7657 64.0098L47.7918 63.6651ZM42.9789 68.4245C41.7077 68.4245 40.8369 67.9767 40.268 67.1234L39.4084 67.6965C40.2005 68.8846 41.4234 69.4576 42.9789 69.4576V68.4245ZM40.268 67.1234C39.6649 66.2188 39.3341 64.9195 39.3341 63.1701H38.3009C38.3009 65.0324 38.6505 66.5597 39.4084 67.6965L40.268 67.1234ZM39.3341 63.1701C39.3341 60.6805 39.9064 57.7428 41.0727 54.3477L40.0956 54.0121C38.9063 57.4742 38.3009 60.5298 38.3009 63.1701H39.3341ZM41.0723 54.3489C42.2353 50.989 44.0367 47.266 46.4842 43.1781L45.5978 42.6474C43.125 46.7776 41.2884 50.5661 40.096 54.0109L41.0723 54.3489ZM46.5576 42.9128C46.5576 39.0921 46.5314 36.4272 46.4787 34.9252L45.4463 34.9615C45.4983 36.4431 45.5245 39.0912 45.5245 42.9128H46.5576ZM46.4788 34.9256C46.4587 34.3431 46.6754 33.9051 47.164 33.559L46.5669 32.716C45.7992 33.2597 45.414 34.0256 45.4463 34.9612L46.4788 34.9256ZM47.164 33.559C47.6869 33.1886 48.3614 32.9866 49.2209 32.9866V31.9535C48.1961 31.9535 47.3002 32.1965 46.5669 32.716L47.164 33.559ZM49.2209 32.9866C49.7181 32.9866 49.9415 33.0968 50.0334 33.1887L50.764 32.4582C50.3848 32.079 49.823 31.9535 49.2209 31.9535V32.9866ZM50.076 33.2268C50.1485 33.2848 50.2891 33.5069 50.3144 34.1396L51.3467 34.0983C51.3196 33.4224 51.1723 32.7808 50.7214 32.4201L50.076 33.2268ZM50.314 34.1189C50.314 34.7758 50.327 35.2778 50.355 35.6144L51.3846 35.5286C51.3603 35.237 51.3471 34.7707 51.3471 34.1189H50.314ZM51.2732 35.8942C52.0856 34.8786 52.8603 34.1876 53.5914 33.7867L53.0947 32.8808C52.2031 33.3698 51.329 34.1706 50.4664 35.2488L51.2732 35.8942ZM53.6024 33.7805C54.337 33.354 55.1115 33.1437 55.9341 33.1437V32.1106C54.9247 32.1106 53.9718 32.3714 53.0837 32.8871L53.6024 33.7805ZM55.9341 33.1437C57.237 33.1437 58.2786 33.6563 59.0989 34.7109L59.9144 34.0766C58.9025 32.7757 57.5625 32.1106 55.9341 32.1106V33.1437ZM59.1032 34.7164C59.9545 35.7805 60.4034 37.2011 60.4034 39.0262H61.4365C61.4365 37.0302 60.9431 35.3625 59.91 34.0711L59.1032 34.7164ZM60.4034 39.0262C60.4034 40.357 60.1901 41.6487 59.7635 42.9035L60.7416 43.2361C61.2048 41.8738 61.4365 40.4697 61.4365 39.0262H60.4034ZM59.7635 42.9035C59.3347 44.1645 58.7435 45.3082 57.9905 46.3373L58.8243 46.9474C59.6416 45.8303 60.2804 44.5924 60.7416 43.2361L59.7635 42.9035ZM58.2655 47.139C58.8385 47.3027 59.348 47.3944 59.7814 47.3944V46.3613C59.482 46.3613 59.0755 46.296 58.5493 46.1456L58.2655 47.139ZM59.7814 47.3944C60.7811 47.3944 61.7164 47.0279 62.5774 46.339L61.932 45.5323C61.2227 46.0998 60.5091 46.3613 59.7814 46.3613V47.3944ZM62.5774 46.339C63.4032 45.6784 64.4371 44.6 65.6732 43.1271L64.8819 42.4629C63.6579 43.9214 62.6765 44.9367 61.932 45.5323L62.5774 46.339ZM65.6698 43.1312C65.9102 42.8507 66.1297 42.762 66.3376 42.762V41.7288C65.7602 41.7288 65.2731 42.0065 64.8854 42.4588L65.6698 43.1312ZM50.9033 47.9318C51.9601 47.6969 52.9102 47.127 53.7535 46.2556L53.0111 45.5372C52.2841 46.2885 51.5069 46.7393 50.6792 46.9232L50.9033 47.9318ZM53.7533 46.2558C54.6173 45.364 55.2937 44.2833 55.787 43.0225L54.8249 42.646C54.3761 43.7931 53.7701 44.7538 53.0113 45.537L53.7533 46.2558ZM55.7884 43.019C56.2824 41.7292 56.5292 40.384 56.5292 38.987H55.4961C55.4961 40.2595 55.2718 41.4792 54.8236 42.6495L55.7884 43.019ZM56.5292 38.987C56.5292 38.1466 56.3634 37.4208 55.9449 36.8977L55.1382 37.543C55.3478 37.8051 55.4961 38.257 55.4961 38.987H56.5292ZM55.9548 36.9104C55.5431 36.3616 54.9713 36.0757 54.2853 36.0757V37.1088C54.6461 37.1088 54.9118 37.2416 55.1283 37.5303L55.9548 36.9104ZM54.2853 36.0757C53.6327 36.0757 52.9946 36.4165 52.3849 36.9491C51.7679 37.4881 51.1206 38.2751 50.4409 39.288L51.2987 39.8637C51.9538 38.8875 52.5431 38.1827 53.0646 37.7271C53.5933 37.2652 53.9956 37.1088 54.2853 37.1088V36.0757ZM50.3534 39.5641C50.3271 40.7217 50.314 42.4145 50.314 44.6402H51.3471C51.3471 42.4166 51.3602 40.7332 51.3862 39.5876L50.3534 39.5641ZM50.314 44.6402C50.314 45.8419 50.3009 46.7629 50.2751 47.4068L51.3074 47.4481C51.334 46.7835 51.3471 45.8463 51.3471 44.6402H50.314ZM43.2929 65.6103C43.6789 65.6103 43.9799 65.3945 44.1966 65.1362C44.4116 64.8799 44.5909 64.5297 44.7472 64.1197C45.0616 63.2953 45.3331 62.0936 45.5702 60.5391L44.5489 60.3834C44.3149 61.9172 44.0564 63.0318 43.7819 63.7515C43.6439 64.1136 43.5139 64.3425 43.4051 64.4722C43.2979 64.5999 43.2603 64.5772 43.2929 64.5772V65.6103ZM45.5701 60.5398C46.0456 57.4491 46.3476 53.605 46.4788 49.0126L45.4462 48.9831C45.3156 53.5509 45.0157 57.3491 44.549 60.3827L45.5701 60.5398ZM45.488 48.7938C44.3546 51.4296 43.4563 53.9516 42.7948 56.3593L43.791 56.633C44.4382 54.2774 45.3196 51.8005 46.437 49.2019L45.488 48.7938ZM42.7948 56.3593C42.134 58.7649 41.7949 60.8164 41.7949 62.5027H42.828C42.828 60.9436 43.1433 58.9907 43.791 56.633L42.7948 56.3593ZM41.7949 62.5027C41.7949 63.3699 41.9012 64.1003 42.1582 64.6463L43.0929 64.2064C42.9311 63.8625 42.828 63.3104 42.828 62.5027H41.7949ZM42.1479 64.623C42.3406 65.091 42.6846 65.6103 43.2929 65.6103V64.5772C43.3261 64.5772 43.3304 64.5969 43.2951 64.5616C43.2507 64.5172 43.1812 64.4191 43.1032 64.2297L42.1479 64.623ZM66.9439 29.3687L66.5875 29.7429L66.5973 29.7517L66.9439 29.3687ZM67.1795 24.9325L67.5144 25.3257L67.5156 25.3247L67.1795 24.9325ZM72.126 29.2117L72.4683 29.5986L72.4764 29.5912L72.126 29.2117ZM65.3736 49.3904L64.9366 49.6659L64.9409 49.6726L65.3736 49.3904ZM64.6669 40.0862L64.1576 40.0001L64.1566 40.006L64.6669 40.0862ZM65.8447 34.9041L66.3402 35.0503L66.3419 35.044L65.8447 34.9041ZM69.9275 38.5944L70.4322 38.7045L70.4332 38.7L69.9275 38.5944ZM72.126 45.8964L71.775 45.5174L72.126 45.8964ZM74.9526 42.795L74.5604 42.4588L74.5558 42.4643L74.9526 42.795ZM76.7977 42.7165L76.3515 42.9768L76.3593 42.9902L76.3679 43.003L76.7977 42.7165ZM76.3659 46.446L75.9748 46.1083L75.9661 46.1189L76.3659 46.446ZM69.4172 29.598C68.3855 29.598 67.7082 29.3636 67.2905 28.9856L66.5973 29.7517C67.2789 30.3683 68.2504 30.6312 69.4172 30.6312V29.598ZM67.3002 28.9946C66.8737 28.5885 66.636 28.0156 66.636 27.2095H65.6029C65.6029 28.2354 65.9149 29.102 66.5877 29.7427L67.3002 28.9946ZM66.636 27.2095C66.636 26.4471 66.9212 25.8311 67.5144 25.3257L66.8445 24.5393C66.0244 25.2379 65.6029 26.1398 65.6029 27.2095H66.636ZM67.5156 25.3247C68.1442 24.7859 68.9238 24.5069 69.8883 24.5069V23.4737C68.7067 23.4737 67.6804 23.8228 66.8433 24.5403L67.5156 25.3247ZM69.8883 24.5069C70.7725 24.5069 71.4362 24.7209 71.9254 25.1037L72.5621 24.2902C71.8474 23.7308 70.9408 23.4737 69.8883 23.4737V24.5069ZM71.9254 25.1037C72.3849 25.4633 72.6302 25.9709 72.6302 26.6991H73.6633C73.6633 25.7 73.3066 24.8728 72.5621 24.2902L71.9254 25.1037ZM72.6302 26.6991C72.6302 27.6226 72.3358 28.315 71.7756 28.8321L72.4764 29.5912C73.2771 28.852 73.6633 27.8694 73.6633 26.6991H72.6302ZM71.7837 28.8248C71.2188 29.3245 70.4478 29.598 69.4172 29.598V30.6312C70.6374 30.6312 71.6723 30.3027 72.4683 29.5986L71.7837 28.8248ZM69.1031 50.6797C67.5393 50.6797 66.4774 50.1373 65.8062 49.1082L64.9409 49.6726C65.8401 51.0513 67.2645 51.7128 69.1031 51.7128V50.6797ZM65.8105 49.1149C65.1203 48.0201 64.7516 46.5296 64.7516 44.6009H63.7185C63.7185 46.6503 64.1088 48.3529 64.9366 49.6659L65.8105 49.1149ZM64.7516 44.6009C64.7516 43.4607 64.8914 41.9851 65.1772 40.1664L64.1566 40.006C63.8666 41.8514 63.7185 43.3856 63.7185 44.6009H64.7516ZM65.1763 40.1723C65.4873 38.3317 65.8755 36.6247 66.3401 35.0503L65.3492 34.7579C64.8716 36.3765 64.4747 38.1242 64.1576 40.0001L65.1763 40.1723ZM66.3419 35.044C66.5673 34.2427 66.8432 33.7932 67.1096 33.5801L66.4642 32.7734C65.9454 33.1884 65.5932 33.8904 65.3474 34.7642L66.3419 35.044ZM67.1096 33.5801C67.3649 33.3758 67.8487 33.2222 68.6713 33.2222V32.1891C67.7665 32.1891 66.994 32.3495 66.4642 32.7734L67.1096 33.5801ZM68.6713 33.2222C69.2976 33.2222 69.677 33.3295 69.8864 33.4691C70.0588 33.5841 70.1569 33.746 70.1569 34.0404H71.19C71.19 33.445 70.9544 32.9395 70.4594 32.6095C70.0014 32.3042 69.3797 32.1891 68.6713 32.1891V33.2222ZM70.1569 34.0404C70.1569 34.63 69.9227 36.09 69.4219 38.4888L70.4332 38.7C70.9269 36.3354 71.19 34.7595 71.19 34.0404H70.1569ZM69.4229 38.4843C68.7964 41.3554 68.4688 43.3587 68.4688 44.4439H69.5019C69.5019 43.4876 69.8024 41.5912 70.4322 38.7045L69.4229 38.4843ZM68.4688 44.4439C68.4688 45.2617 68.5757 45.9573 68.8374 46.4808L69.7614 46.0187C69.6044 45.7047 69.5019 45.1963 69.5019 44.4439H68.4688ZM68.8374 46.4808C68.9801 46.7661 69.1846 47.0032 69.4581 47.1652C69.7298 47.3262 70.0376 47.3944 70.3594 47.3944V46.3613C70.1839 46.3613 70.0664 46.3249 69.9848 46.2765C69.9049 46.2292 69.8281 46.1521 69.7614 46.0187L68.8374 46.4808ZM70.3594 47.3944C71.0423 47.3944 71.7595 46.9398 72.477 46.2755L71.775 45.5174C71.0792 46.1617 70.6186 46.3613 70.3594 46.3613V47.3944ZM72.477 46.2755C73.2086 45.598 74.1678 44.5437 75.3494 43.1257L74.5558 42.4643C73.3819 43.8729 72.4567 44.8862 71.775 45.5174L72.477 46.2755ZM75.3448 43.1312C75.5852 42.8507 75.8048 42.762 76.0126 42.762V41.7288C75.4352 41.7288 74.9481 42.0065 74.5604 42.4588L75.3448 43.1312ZM76.0126 42.762C76.1542 42.762 76.2532 42.8081 76.3515 42.9768L77.2439 42.4562C76.9759 41.9968 76.5514 41.7288 76.0126 41.7288V42.762ZM76.3679 43.003C76.5004 43.2018 76.5952 43.5202 76.5952 44.012H77.6284C77.6284 43.4046 77.5138 42.8594 77.2275 42.43L76.3679 43.003ZM76.5952 44.012C76.5952 44.9816 76.3652 45.6566 75.975 46.1084L76.7568 46.7837C77.3611 46.084 77.6284 45.1363 77.6284 44.012H76.5952ZM75.9661 46.1189C73.3979 49.2578 71.1101 50.6797 69.1031 50.6797V51.7128C71.5977 51.7128 74.1518 49.9679 76.7657 46.7731L75.9661 46.1189ZM92.2299 42.7165L91.7837 42.9768L91.7915 42.9902L91.8001 43.003L92.2299 42.7165ZM91.7981 46.446L91.4071 46.1084L91.4019 46.1144L91.3969 46.1206L91.7981 46.446ZM88.1078 49.8615L87.8213 49.4317L88.1078 49.8615ZM75.6237 36.4352L76.1391 36.4695L76.1758 35.9186H75.6237V36.4352ZM72.483 36.0033L72.1008 36.3508L72.1091 36.3599L72.1177 36.3686L72.483 36.0033ZM76.0948 32.4308V32.9474H76.5376L76.6053 32.5097L76.0948 32.4308ZM78.1362 24.5399L77.6541 24.3545L78.1362 24.5399ZM81.4339 18.8475L81.0548 18.4965L81.0513 18.5003L81.4339 18.8475ZM88.2256 18.1801L88.6589 17.899L88.2256 18.1801ZM84.0642 32.4308L83.7219 32.0439L82.7006 32.9474H84.0642V32.4308ZM80.4132 36.4352V35.9186H79.9169L79.897 36.4145L80.4132 36.4352ZM81.2769 45.229L80.8283 45.4854L80.833 45.4932L81.2769 45.229ZM87.3226 45.8572L87.6423 46.2629L87.3226 45.8572ZM90.3848 42.795L90.7754 43.133L90.777 43.1312L90.3848 42.795ZM83.2398 21.9881L82.7777 21.7571L82.7753 21.7622L83.2398 21.9881ZM81.8657 26.071L81.365 25.9439L81.3637 25.9493L81.8657 26.071ZM80.8058 31.842L80.2939 31.7724L80.1101 33.1261L81.1436 32.2327L80.8058 31.842ZM84.2605 27.3665L83.7928 27.1473L83.7913 27.1505L84.2605 27.3665ZM91.4448 42.762C91.5864 42.762 91.6853 42.8081 91.7837 42.9768L92.6761 42.4562C92.4081 41.9968 91.9836 41.7288 91.4448 41.7288V42.762ZM91.8001 43.003C91.9326 43.2018 92.0274 43.5202 92.0274 44.012H93.0605C93.0605 43.4046 92.946 42.8594 92.6597 42.43L91.8001 43.003ZM92.0274 44.012C92.0274 44.9816 91.7974 45.6566 91.4071 46.1084L92.189 46.7837C92.7933 46.084 93.0605 45.1363 93.0605 44.012H92.0274ZM91.3969 46.1206C90.3006 47.4719 89.1082 48.5737 87.8213 49.4317L88.3943 50.2913C89.7769 49.3696 91.0447 48.1944 92.1992 46.7715L91.3969 46.1206ZM87.8213 49.4317C86.5779 50.2606 85.1482 50.6797 83.5146 50.6797V51.7128C85.3357 51.7128 86.9681 51.2421 88.3943 50.2913L87.8213 49.4317ZM83.5146 50.6797C80.9818 50.6797 79.1506 49.7987 77.9291 48.0802C76.6846 46.3294 76.0224 43.6393 76.0224 39.9292H74.9893C74.9893 43.7304 75.662 46.6739 77.087 48.6788C78.5351 50.716 80.7082 51.7128 83.5146 51.7128V50.6797ZM76.0224 39.9292C76.0224 38.7893 76.0613 37.6361 76.1391 36.4695L75.1083 36.4008C75.029 37.5897 74.9893 38.7658 74.9893 39.9292H76.0224ZM75.6237 35.9186H74.0926V36.9517H75.6237V35.9186ZM74.0926 35.9186C73.332 35.9186 72.9815 35.7713 72.8483 35.6381L72.1177 36.3686C72.5603 36.8112 73.2828 36.9517 74.0926 36.9517V35.9186ZM72.8652 35.6559C72.7296 35.5067 72.607 35.2036 72.607 34.6293H71.5739C71.5739 35.3113 71.7129 35.9242 72.1008 36.3508L72.8652 35.6559ZM72.607 34.6293C72.607 33.9521 72.7453 33.5398 72.9347 33.304C73.1069 33.0898 73.3814 32.9474 73.857 32.9474V31.9143C73.155 31.9143 72.5462 32.1383 72.1294 32.6569C71.73 33.1539 71.5739 33.8409 71.5739 34.6293H72.607ZM73.857 32.9474H76.0948V31.9143H73.857V32.9474ZM76.6053 32.5097C77.0453 29.6622 77.7172 27.0682 78.6183 24.7253L77.6541 24.3545C76.7231 26.775 76.034 29.4416 75.5843 32.3519L76.6053 32.5097ZM78.6183 24.7253C79.5187 22.3844 80.5887 20.5476 81.8164 19.1946L81.0513 18.5003C79.7142 19.9739 78.5857 21.9321 77.6541 24.3545L78.6183 24.7253ZM81.8129 19.1984C83.0539 17.8582 84.3256 17.2441 85.6345 17.2441V16.211C83.9598 16.211 82.4311 17.0101 81.0549 18.4965L81.8129 19.1984ZM85.6345 17.2441C86.5485 17.2441 87.2536 17.6308 87.7922 18.4612L88.6589 17.899C87.9413 16.7926 86.919 16.211 85.6345 16.211V17.2441ZM87.7922 18.4612C88.3531 19.3259 88.6512 20.4385 88.6512 21.8311H89.6843C89.6843 20.2924 89.3543 18.971 88.6589 17.899L87.7922 18.4612ZM88.6512 21.8311C88.6512 25.7211 87.0283 29.1191 83.7219 32.0439L84.4065 32.8177C87.9049 29.723 89.6843 26.0544 89.6843 21.8311H88.6512ZM84.0642 32.9474H88.4611V31.9143H84.0642V32.9474ZM88.4611 32.9474C88.8238 32.9474 88.9576 33.0297 88.9988 33.0709L89.7293 32.3404C89.4041 32.0151 88.936 31.9143 88.4611 31.9143V32.9474ZM88.9988 33.0709C89.0276 33.0997 89.1223 33.2545 89.1223 33.7264H90.1554C90.1554 33.2036 90.0669 32.6779 89.7293 32.3404L88.9988 33.0709ZM89.1223 33.7264C89.1223 34.4585 88.8386 34.9642 88.2606 35.3171C87.6412 35.6953 86.6457 35.9186 85.2027 35.9186V36.9517C86.7172 36.9517 87.9397 36.7236 88.799 36.1988C89.6998 35.6488 90.1554 34.8 90.1554 33.7264H89.1223ZM85.2027 35.9186H80.4132V36.9517H85.2027V35.9186ZM79.897 36.4145C79.8446 37.7256 79.8181 38.7543 79.8181 39.4973H80.8512C80.8512 38.7747 80.8771 37.762 80.9293 36.4558L79.897 36.4145ZM79.8181 39.4973C79.8181 42.2278 80.1277 44.2592 80.8284 45.4853L81.7254 44.9727C81.1697 44.0004 80.8512 42.2106 80.8512 39.4973H79.8181ZM80.833 45.4932C81.5896 46.7643 82.7884 47.3944 84.339 47.3944V46.3613C83.1154 46.3613 82.2728 45.8922 81.7207 44.9648L80.833 45.4932ZM84.339 47.3944C85.5774 47.3944 86.6852 47.017 87.6423 46.2629L87.003 45.4514C86.2327 46.0583 85.3514 46.3613 84.339 46.3613V47.3944ZM87.6423 46.2629C88.5427 45.5535 89.5879 44.5053 90.7754 43.133L89.9942 42.457C88.8262 43.8067 87.8299 44.7999 87.003 45.4514L87.6423 46.2629ZM90.777 43.1312C91.0174 42.8507 91.2369 42.762 91.4448 42.762V41.7288C90.8674 41.7288 90.3803 42.0065 89.9926 42.4588L90.777 43.1312ZM84.5746 19.9798C84.1557 19.9798 83.8165 20.2398 83.5615 20.5248C83.2948 20.8228 83.0352 21.2422 82.7778 21.7571L83.7018 22.2191C83.9416 21.7395 84.1531 21.413 84.3314 21.2137C84.5212 21.0015 84.6009 21.0129 84.5746 21.0129V19.9798ZM82.7753 21.7622C82.2819 22.7763 81.8136 24.1759 81.365 25.9439L82.3664 26.198C82.8077 24.459 83.2555 23.1367 83.7043 22.2141L82.7753 21.7622ZM81.3637 25.9493C80.9401 27.6969 80.5837 29.6383 80.2939 31.7724L81.3176 31.9115C81.6036 29.8057 81.9539 27.8998 82.3677 26.1927L81.3637 25.9493ZM81.1436 32.2327C82.7365 30.8558 83.9363 29.3062 84.7297 27.5825L83.7913 27.1505C83.0667 28.7245 81.9633 30.1586 80.468 31.4512L81.1436 32.2327ZM84.7282 27.5858C85.5346 25.8654 85.9548 24.2714 85.9548 22.8126H84.9217C84.9217 24.0756 84.5567 25.5176 83.7928 27.1473L84.7282 27.5858ZM85.9548 22.8126C85.9548 22.023 85.8832 21.3691 85.7063 20.8949C85.6167 20.6545 85.4879 20.4269 85.2967 20.256C85.0947 20.0754 84.8464 19.9798 84.5746 19.9798V21.0129C84.5906 21.0129 84.5943 21.0138 84.6082 21.0262C84.6328 21.0483 84.684 21.1103 84.7383 21.2558C84.8494 21.5537 84.9217 22.0579 84.9217 22.8126H85.9548ZM107.642 42.7165L107.196 42.9768L107.203 42.9902L107.212 43.003L107.642 42.7165ZM107.21 46.446L106.819 46.1083L106.811 46.118L107.21 46.446ZM103.088 49.7045L102.836 49.2535L102.833 49.2552L103.088 49.7045ZM91.0356 48.9586L91.3977 48.5901L91.0356 48.9586ZM89.8971 37.8092L90.3607 38.0371L90.3622 38.034L89.8971 37.8092ZM93.0378 34.0797L92.7493 33.6511L92.7455 33.6538L93.0378 34.0797ZM101.282 34.0797L100.917 34.445L100.922 34.4502L101.282 34.0797ZM100.693 42.4024L100.328 42.0372L100.693 42.4024ZM94.137 45.4646L94.0137 44.963L93.3633 45.1228L93.6832 45.7112L94.137 45.4646ZM101.871 46.0535L102.118 46.5073L102.12 46.5057L101.871 46.0535ZM105.797 42.795L105.404 42.4588L105.398 42.4666L105.797 42.795ZM94.4903 38.2411L94.0482 37.9737L94.0438 37.9814L94.4903 38.2411ZM93.5089 42.4024H92.9923V43.0559L93.6281 42.905L93.5089 42.4024ZM97.1599 40.7536L96.8315 40.3548L97.1599 40.7536ZM98.0628 37.0241L97.666 37.3547L97.681 37.3727L97.6976 37.3893L98.0628 37.0241ZM106.857 42.762C106.998 42.762 107.097 42.8081 107.196 42.9768L108.088 42.4562C107.82 41.9968 107.396 41.7288 106.857 41.7288V42.762ZM107.212 43.003C107.345 43.2018 107.439 43.5202 107.439 44.012H108.472C108.472 43.4046 108.358 42.8594 108.072 42.43L107.212 43.003ZM107.439 44.012C107.439 44.9816 107.209 45.6566 106.819 46.1084L107.601 46.7837C108.205 46.084 108.472 45.1363 108.472 44.012H107.439ZM106.811 46.118C105.895 47.2323 104.577 48.2805 102.836 49.2536L103.34 50.1554C105.158 49.1394 106.588 48.0153 107.609 46.7741L106.811 46.118ZM102.833 49.2552C101.157 50.2056 99.3606 50.6797 97.4347 50.6797V51.7128C99.5393 51.7128 101.512 51.1924 103.343 50.1538L102.833 49.2552ZM97.4347 50.6797C94.781 50.6797 92.7933 49.9617 91.3977 48.5901L90.6735 49.327C92.3139 50.9391 94.5923 51.7128 97.4347 51.7128V50.6797ZM91.3977 48.5901C89.9993 47.2159 89.2752 45.319 89.2752 42.8343H88.2421C88.2421 45.5317 89.0359 47.7176 90.6735 49.327L91.3977 48.5901ZM89.2752 42.8343C89.2752 41.1034 89.6383 39.5068 90.3607 38.0371L89.4335 37.5814C88.638 39.1999 88.2421 40.9534 88.2421 42.8343H89.2752ZM90.3622 38.034C91.0852 36.5381 92.0751 35.3668 93.3301 34.5056L92.7455 33.6538C91.3309 34.6246 90.227 35.9396 89.432 37.5844L90.3622 38.034ZM93.3262 34.5082C94.5986 33.6518 96.0285 33.2222 97.631 33.2222V32.1891C95.8311 32.1891 94.1988 32.6755 92.7493 33.6511L93.3262 34.5082ZM97.631 33.2222C99.0374 33.2222 100.114 33.6424 100.917 34.4449L101.647 33.7144C100.618 32.6849 99.2606 32.1891 97.631 32.1891V33.2222ZM100.922 34.4502C101.718 35.2229 102.14 36.2948 102.14 37.7307H103.173C103.173 36.0783 102.679 34.7161 101.642 33.7092L100.922 34.4502ZM102.14 37.7307C102.14 39.3958 101.542 40.8228 100.328 42.0372L101.058 42.7677C102.461 41.3649 103.173 39.6773 103.173 37.7307H102.14ZM100.328 42.0372C99.1454 43.2197 97.0706 44.2117 94.0137 44.963L94.2603 45.9662C97.3801 45.1995 99.676 44.1501 101.058 42.7677L100.328 42.0372ZM93.6832 45.7112C94.4582 47.1373 95.9186 47.787 97.8665 47.787V46.7539C96.1504 46.7539 95.1244 46.1997 94.5909 45.2179L93.6832 45.7112ZM97.8665 47.787C99.1602 47.787 100.581 47.3428 102.118 46.5072L101.624 45.5997C100.177 46.3868 98.9284 46.7539 97.8665 46.7539V47.787ZM102.12 46.5057C103.695 45.6368 105.055 44.5087 106.195 43.1234L105.398 42.4666C104.34 43.7509 103.082 44.7951 101.621 45.6012L102.12 46.5057ZM106.189 43.1312C106.429 42.8507 106.649 42.762 106.857 42.762V41.7288C106.279 41.7288 105.792 42.0065 105.405 42.4588L106.189 43.1312ZM96.9636 36.0364C95.7521 36.0364 94.7848 36.7558 94.0483 37.9738L94.9324 38.5083C95.5568 37.4756 96.2384 37.0695 96.9636 37.0695V36.0364ZM94.0438 37.9814C93.3343 39.2017 92.9923 40.6567 92.9923 42.3239H94.0254C94.0254 40.7981 94.3378 39.5312 94.9369 38.5007L94.0438 37.9814ZM92.9923 42.3239V42.4024H94.0254V42.3239H92.9923ZM93.6281 42.905C95.2217 42.5269 96.5191 41.9505 97.4883 41.1523L96.8315 40.3548C96.021 41.0223 94.8843 41.5452 93.3896 41.8998L93.6281 42.905ZM97.4883 41.1523C98.4721 40.3421 99.0112 39.3544 99.0112 38.2018H97.9781C97.9781 38.986 97.6274 39.6994 96.8315 40.3548L97.4883 41.1523ZM99.0112 38.2018C99.0112 37.5998 98.8335 37.0642 98.4281 36.6588L97.6976 37.3893C97.8679 37.5597 97.9781 37.8092 97.9781 38.2018H99.0112ZM98.4597 36.6934C98.0842 36.2429 97.5619 36.0364 96.9636 36.0364V37.0695C97.3075 37.0695 97.518 37.1771 97.666 37.3547L98.4597 36.6934ZM122.072 38.7122L121.695 39.0655L121.707 39.0776L121.719 39.089L122.072 38.7122ZM122.465 41.3032L122.939 41.5082L122.942 41.5017L122.945 41.495L122.465 41.3032ZM120.698 43.7372L121.036 44.1285L120.698 43.7372ZM116.301 43.9335L115.927 44.2894L115.936 44.2988L116.301 43.9335ZM115.634 40.204L115.121 40.1399L115.12 40.1485L115.12 40.1572L115.634 40.204ZM115.555 38.8692L115.142 39.1791L115.164 39.2085L115.19 39.2345L115.555 38.8692ZM113.75 40.0469L114.167 40.3508L114.172 40.3448L113.75 40.0469ZM111.865 43.5017L111.392 43.2951L111.865 43.5017ZM110.334 48.0556L109.832 47.9323L109.831 47.9402L110.334 48.0556ZM109.353 50.5682L108.964 50.228L109.353 50.5682ZM105.427 49.626L104.943 49.8074L104.947 49.8178L105.427 49.626ZM106.291 34.9041L106.783 35.0599L106.784 35.0572L106.291 34.9041ZM107.429 33.2553L107.711 33.6884L107.716 33.6851L107.429 33.2553ZM110.53 36.4744L110.031 36.3408L110.029 36.3492L110.53 36.4744ZM109.51 42.1276L108.995 42.0809L109.992 42.3127L109.51 42.1276ZM112.415 36.6315L112.003 36.3191L112.415 36.6315ZM120.07 33.373L119.683 33.7148L119.694 33.7269L119.705 33.7383L120.07 33.373ZM120.266 38.084L119.761 37.979L119.632 38.6006H120.266V38.084ZM120.62 38.6006C121.053 38.6006 121.401 38.7512 121.695 39.0655L122.449 38.3589C121.959 37.8356 121.338 37.5675 120.62 37.5675V38.6006ZM121.719 39.089C122.028 39.3787 122.184 39.737 122.184 40.204H123.217C123.217 39.4671 122.954 38.8308 122.426 38.3353L121.719 39.089ZM122.184 40.204C122.184 40.4647 122.124 40.7655 121.985 41.1114L122.945 41.495C123.12 41.0558 123.217 40.6238 123.217 40.204H122.184ZM121.991 41.0982C121.601 41.9988 121.058 42.7453 120.361 43.346L121.036 44.1285C121.857 43.4205 122.491 42.5443 122.939 41.5082L121.991 41.0982ZM120.361 43.346C119.686 43.9276 118.966 44.2021 118.186 44.2021V45.2352C119.238 45.2352 120.192 44.8554 121.036 44.1285L120.361 43.346ZM118.186 44.2021C117.592 44.2021 117.094 43.9959 116.667 43.5682L115.936 44.2988C116.555 44.918 117.314 45.2352 118.186 45.2352V44.2021ZM116.676 43.5777C116.29 43.1715 116.072 42.6034 116.072 41.8136H115.039C115.039 42.8034 115.318 43.6487 115.927 44.2893L116.676 43.5777ZM116.072 41.8136C116.072 41.3342 116.097 40.8134 116.148 40.2507L115.12 40.1572C115.066 40.7461 115.039 41.2984 115.039 41.8136H116.072ZM116.147 40.268C116.199 39.852 116.229 39.5339 116.229 39.3403H115.196C115.196 39.4607 115.174 39.7184 115.121 40.1399L116.147 40.268ZM116.229 39.3403C116.229 39.0513 116.156 38.7397 115.921 38.5039L115.19 39.2345C115.179 39.2237 115.179 39.2173 115.183 39.2288C115.188 39.2429 115.196 39.2771 115.196 39.3403H116.229ZM115.969 38.5593C115.793 38.3245 115.535 38.1956 115.241 38.1956V39.2287C115.236 39.2287 115.215 39.2272 115.187 39.2134C115.16 39.1997 115.145 39.1833 115.142 39.1791L115.969 38.5593ZM115.241 38.1956C114.861 38.1956 114.523 38.4159 114.249 38.6609C113.959 38.9205 113.652 39.2896 113.328 39.7491L114.172 40.3448C114.475 39.9145 114.731 39.6162 114.938 39.4308C115.162 39.2309 115.255 39.2287 115.241 39.2287V38.1956ZM113.332 39.7431C112.674 40.6476 112.029 41.8357 111.392 43.2951L112.339 43.7083C112.958 42.2887 113.569 41.1736 114.167 40.3508L113.332 39.7431ZM111.392 43.2951C110.751 44.7627 110.232 46.3086 109.833 47.9323L110.836 48.179C111.222 46.6096 111.723 45.1196 112.339 43.7083L111.392 43.2951ZM109.831 47.9402C109.543 49.1958 109.237 49.9162 108.964 50.228L109.741 50.9083C110.201 50.3826 110.55 49.428 110.838 48.171L109.831 47.9402ZM108.964 50.228C108.736 50.488 108.311 50.6797 107.547 50.6797V51.7128C108.457 51.7128 109.236 51.4858 109.741 50.9083L108.964 50.228ZM107.547 50.6797C107.145 50.6797 106.831 50.576 106.578 50.3886C106.321 50.1979 106.09 49.8934 105.906 49.4341L104.947 49.8178C105.182 50.4054 105.514 50.886 105.963 51.2188C106.417 51.5549 106.954 51.7128 107.547 51.7128V50.6797ZM105.91 49.4446C105.552 48.4897 105.355 46.8936 105.355 44.6009H104.321C104.321 46.9145 104.516 48.6685 104.943 49.8073L105.91 49.4446ZM105.355 44.6009C105.355 41.2482 105.832 38.0687 106.783 35.0599L105.798 34.7484C104.813 37.8638 104.321 41.1488 104.321 44.6009H105.355ZM106.784 35.0572C106.994 34.3813 107.313 33.9466 107.711 33.6884L107.147 32.8222C106.498 33.2444 106.059 33.9089 105.797 34.751L106.784 35.0572ZM107.716 33.6851C108.149 33.3959 108.795 33.2222 109.706 33.2222V32.1891C108.681 32.1891 107.808 32.3818 107.142 32.8255L107.716 33.6851ZM109.706 33.2222C110.219 33.2222 110.455 33.2923 110.531 33.34L111.079 32.4639C110.736 32.2498 110.24 32.1891 109.706 32.1891V33.2222ZM110.531 33.34C110.537 33.3437 110.55 33.3513 110.565 33.387C110.583 33.4295 110.603 33.5103 110.603 33.6478H111.636C111.636 33.1961 111.504 32.7296 111.079 32.4639L110.531 33.34ZM110.603 33.6478C110.603 33.7993 110.564 34.0939 110.466 34.5632C110.371 35.021 110.226 35.6127 110.031 36.3408L111.029 36.6081C111.227 35.8706 111.377 35.2583 111.478 34.7739C111.576 34.301 111.636 33.9152 111.636 33.6478H110.603ZM110.029 36.3492C109.766 37.4015 109.555 38.3258 109.396 39.1212L110.409 39.3238C110.564 38.5489 110.771 37.6412 111.032 36.5997L110.029 36.3492ZM109.396 39.1212C109.234 39.9304 109.101 40.9183 108.995 42.0809L110.024 42.1744C110.128 41.0339 110.257 40.085 110.409 39.3238L109.396 39.1212ZM109.992 42.3127C110.844 40.0923 111.791 38.3072 112.826 36.9438L112.003 36.3191C110.892 37.7824 109.903 39.6613 109.027 41.9426L109.992 42.3127ZM112.826 36.9438C113.877 35.5599 114.876 34.6088 115.818 34.0535L115.293 33.1636C114.193 33.8123 113.099 34.8764 112.003 36.3191L112.826 36.9438ZM115.818 34.0535C116.79 33.48 117.628 33.2222 118.343 33.2222V32.1891C117.382 32.1891 116.362 32.5332 115.293 33.1636L115.818 34.0535ZM118.343 33.2222C118.998 33.2222 119.414 33.4104 119.683 33.7148L120.458 33.0313C119.941 32.4459 119.206 32.1891 118.343 32.1891V33.2222ZM119.705 33.7383C119.993 34.026 120.182 34.4995 120.182 35.2574H121.215C121.215 34.3403 120.985 33.5576 120.435 33.0078L119.705 33.7383ZM120.182 35.2574C120.182 35.6935 120.05 36.585 119.761 37.979L120.772 38.189C121.059 36.8088 121.215 35.8159 121.215 35.2574H120.182ZM120.266 38.6006H120.62V37.5675H120.266V38.6006Z" fill="black"/>
<path d="M30.8965 24.5061C30.8965 25.2912 30.7264 25.8801 30.3861 26.2727C30.0721 26.6653 29.5486 26.8616 28.8158 26.8616C28.7635 27.4112 28.6457 28.3665 28.4625 29.7274C28.2008 31.5595 28.0568 32.5802 28.0306 32.7896C25.7013 50.1417 20.8464 58.8178 13.4658 58.8178C11.2935 58.8178 9.59234 58.2028 8.36225 56.9727C7.15833 55.7426 6.55637 54.1984 6.55637 52.3402C6.55637 49.0163 7.96966 46.0851 10.7963 43.5464C13.6229 40.9815 17.3393 38.8615 21.9456 37.1865C22.2335 35.3283 22.456 33.6663 22.613 32.2007L23.3197 26.2727C21.7493 26.1157 20.2837 26.0372 18.9227 26.0372C15.2848 26.0372 12.6021 26.3905 10.8748 27.0971C9.14741 27.8038 8.28373 28.9554 8.28373 30.5519C8.28373 31.337 8.54545 32.1876 9.0689 33.1036C9.22593 33.3654 9.30444 33.6402 9.30444 33.9281C9.30444 34.4777 9.01655 34.975 8.44076 35.4199C7.89115 35.8386 7.28919 36.048 6.63488 36.048C5.79737 36.048 5.15615 35.6947 4.71123 34.988C3.9784 33.7841 3.61199 32.3839 3.61199 30.7874C3.61199 24.5061 9.10815 21.3654 20.1005 21.3654C23.2935 21.3654 26.1462 21.6795 28.6588 22.3076C30.1506 22.674 30.8965 23.4069 30.8965 24.5061ZM13.9762 54.6172C15.2586 54.6172 16.5411 53.6488 17.8235 51.7121C19.1059 49.7753 20.2313 46.386 21.1997 41.5442C14.8137 44.3446 11.6207 47.7732 11.6207 51.8298C11.6207 52.7197 11.8301 53.4133 12.2488 53.9105C12.6676 54.3816 13.2434 54.6172 13.9762 54.6172Z" fill="white"/>
<path fill-rule="evenodd" clip-rule="evenodd" d="M28.9727 29.7912L28.9722 29.7954C28.7099 31.6311 28.567 32.645 28.5415 32.8485L28.5409 32.8532C27.3732 41.5523 25.5663 48.1354 23.0915 52.5579C20.6089 56.9945 17.4053 59.3293 13.4641 59.3293C11.1908 59.3293 9.34506 58.6826 7.9953 57.3328L7.99137 57.3289C6.685 55.9941 6.03812 54.3166 6.03812 52.3351C6.03812 48.8433 7.53066 45.7788 10.4485 43.1578C13.2767 40.5917 16.9597 38.4766 21.4797 36.8015C21.7443 35.0705 21.9502 33.5171 22.0977 32.1406L22.0984 32.1344L22.7424 26.7318C21.3842 26.6095 20.1106 26.5486 18.921 26.5486C15.2987 26.5486 12.6995 26.903 11.0687 27.5701C10.2663 27.8984 9.70457 28.3136 9.34305 28.7956C8.98558 29.2722 8.7986 29.8474 8.7986 30.5467C8.7986 31.2152 9.02133 31.9758 9.51318 32.8378C9.7134 33.1734 9.81931 33.5377 9.81931 33.923C9.81931 34.6813 9.41295 35.315 8.75492 35.8235L8.75214 35.8257C8.11794 36.3089 7.4072 36.5595 6.63319 36.5595C5.61883 36.5595 4.81225 36.1155 4.27241 35.2582L4.26825 35.2515C3.47988 33.9564 3.09375 32.4607 3.09375 30.7823C3.09375 27.4545 4.56868 24.9287 7.47614 23.2673C10.3405 21.6306 14.5704 20.8438 20.0988 20.8438C23.3243 20.8438 26.22 21.1609 28.7815 21.8012C29.5775 21.9968 30.2345 22.3037 30.6974 22.7585C31.1747 23.2274 31.4114 23.8207 31.4114 24.501C31.4114 25.345 31.231 26.0745 30.7814 26.5983C30.4196 27.0454 29.8946 27.2737 29.2822 27.3465C29.218 27.9215 29.1146 28.7375 28.9727 29.7912ZM28.8141 26.8565C29.5469 26.8565 30.0704 26.6602 30.3845 26.2676C30.7247 25.875 30.8948 25.2861 30.8948 24.501C30.8948 23.4017 30.1489 22.6689 28.6571 22.3025C26.1446 21.6744 23.2918 21.3603 20.0988 21.3603C9.10647 21.3603 3.61031 24.501 3.61031 30.7823C3.61031 32.3788 3.97672 33.779 4.70954 34.9829C5.15447 35.6896 5.79568 36.0429 6.63319 36.0429C7.2875 36.0429 7.88946 35.8335 8.43908 35.4148C9.01486 34.9698 9.30276 34.4726 9.30276 33.923C9.30276 33.6351 9.22424 33.3603 9.06721 33.0985C8.54376 32.1825 8.28204 31.3319 8.28204 30.5467C8.28204 28.9502 9.14572 27.7987 10.8731 27.092C12.6005 26.3854 15.2831 26.032 18.921 26.032C20.1323 26.032 21.4265 26.0942 22.8036 26.2186C22.9738 26.234 23.1452 26.2503 23.3179 26.2676C23.3179 26.2676 23.3179 26.2676 23.3179 26.2676L22.6113 32.1956C22.4543 33.6612 22.2318 35.3232 21.9439 37.1814C17.3376 38.8564 13.6212 40.9764 10.7946 43.5412C7.96798 46.0799 6.55468 49.0112 6.55468 52.3351C6.55468 54.1933 7.15664 55.7375 8.36056 56.9676C9.59065 58.1977 11.2918 58.8127 13.4641 58.8127C20.8447 58.8127 25.6996 50.1366 28.029 32.7845C28.0551 32.5751 28.1991 31.5544 28.4608 29.7223C28.644 28.3614 28.7618 27.4061 28.8141 26.8565ZM13.9745 54.0955C14.9811 54.0955 16.1287 53.3282 17.3911 51.4218C18.5286 49.7039 19.5688 46.7264 20.4864 42.43C14.7789 45.1225 12.1356 48.2799 12.1356 51.8247C12.1356 52.6338 12.3248 53.1926 12.6378 53.5674C12.9419 53.9066 13.3659 54.0955 13.9745 54.0955ZM12.2471 53.9054C11.8284 53.4082 11.619 52.7146 11.619 51.8247C11.619 47.8927 14.6188 44.5508 20.6184 41.799C20.8086 41.7118 21.0018 41.6251 21.198 41.5391C21.156 41.749 21.1138 41.9562 21.0712 42.1606C20.1318 46.6721 19.0486 49.8542 17.8218 51.707C16.5394 53.6437 15.2569 54.6121 13.9745 54.6121C13.2417 54.6121 12.6659 54.3765 12.2471 53.9054Z" fill="black"/>
<path d="M122.093 22.6398C122.688 22.6398 123.131 22.7793 123.423 23.0582C123.714 23.3372 123.86 23.7494 123.86 24.2949C123.86 24.5862 123.789 24.8435 123.646 25.0666C123.503 25.2836 123.293 25.454 123.014 25.578C122.735 25.6958 122.391 25.7547 121.982 25.7547L122.019 25.3363C122.211 25.3363 122.431 25.3641 122.679 25.4199C122.927 25.4695 123.166 25.5625 123.395 25.6989C123.63 25.829 123.823 26.015 123.971 26.2568C124.126 26.4923 124.204 26.796 124.204 27.168C124.204 27.5771 124.136 27.9118 123.999 28.1721C123.869 28.4325 123.696 28.6339 123.479 28.7765C123.262 28.9191 123.029 29.0183 122.781 29.0741C122.533 29.1236 122.295 29.1484 122.065 29.1484H119.75C119.589 29.1484 119.453 29.0957 119.341 28.9904C119.236 28.8788 119.183 28.7424 119.183 28.5813V23.207C119.183 23.0458 119.236 22.9126 119.341 22.8072C119.453 22.6956 119.589 22.6398 119.75 22.6398H122.093ZM121.926 23.737H120.271L120.392 23.5882V25.2712L120.28 25.1875H121.954C122.133 25.1875 122.295 25.1286 122.437 25.0108C122.58 24.893 122.651 24.7226 122.651 24.4994C122.651 24.2329 122.583 24.0407 122.446 23.923C122.316 23.799 122.143 23.737 121.926 23.737ZM122 26.2846H120.308L120.392 26.2103V28.1721L120.299 28.0792H122.065C122.35 28.0792 122.577 28.0048 122.744 27.856C122.911 27.701 122.995 27.4717 122.995 27.168C122.995 26.889 122.939 26.6876 122.828 26.5636C122.716 26.4396 122.583 26.3621 122.428 26.3311C122.273 26.3001 122.13 26.2846 122 26.2846ZM126.364 28.5813C126.364 28.7424 126.308 28.8788 126.197 28.9904C126.091 29.0957 125.958 29.1484 125.797 29.1484C125.642 29.1484 125.512 29.0957 125.406 28.9904C125.301 28.8788 125.248 28.7424 125.248 28.5813V22.8351C125.248 22.6739 125.301 22.5406 125.406 22.4353C125.518 22.3237 125.654 22.2679 125.816 22.2679C125.977 22.2679 126.107 22.3237 126.206 22.4353C126.311 22.5406 126.364 22.6739 126.364 22.8351V28.5813ZM132.396 26.6659C132.396 27.1742 132.282 27.6236 132.052 28.0141C131.829 28.3984 131.525 28.699 131.141 28.916C130.763 29.1329 130.338 29.2414 129.867 29.2414C129.396 29.2414 128.969 29.1329 128.584 28.916C128.206 28.699 127.902 28.3984 127.673 28.0141C127.45 27.6236 127.338 27.1742 127.338 26.6659C127.338 26.1576 127.45 25.7113 127.673 25.327C127.902 24.9364 128.206 24.6327 128.584 24.4157C128.969 24.1926 129.396 24.081 129.867 24.081C130.338 24.081 130.763 24.1926 131.141 24.4157C131.525 24.6327 131.829 24.9364 132.052 25.327C132.282 25.7113 132.396 26.1576 132.396 26.6659ZM131.281 26.6659C131.281 26.3497 131.216 26.077 131.085 25.8476C130.961 25.6121 130.791 25.4292 130.574 25.2991C130.363 25.1689 130.128 25.1038 129.867 25.1038C129.607 25.1038 129.368 25.1689 129.151 25.2991C128.941 25.4292 128.77 25.6121 128.64 25.8476C128.516 26.077 128.454 26.3497 128.454 26.6659C128.454 26.9758 128.516 27.2485 128.64 27.4841C128.77 27.7134 128.941 27.8932 129.151 28.0234C129.368 28.1536 129.607 28.2186 129.867 28.2186C130.128 28.2186 130.363 28.1536 130.574 28.0234C130.791 27.8932 130.961 27.7134 131.085 27.4841C131.216 27.2485 131.281 26.9758 131.281 26.6659ZM135.437 24.081C135.697 24.081 135.936 24.1213 136.153 24.2019C136.37 24.2825 136.556 24.3848 136.711 24.5087C136.872 24.6327 136.996 24.7598 137.083 24.8899C137.176 25.0139 137.222 25.1193 137.222 25.2061L136.981 25.327V24.6482C136.981 24.487 137.033 24.3538 137.139 24.2484C137.244 24.1368 137.377 24.081 137.538 24.081C137.7 24.081 137.833 24.1337 137.938 24.2391C138.044 24.3445 138.096 24.4808 138.096 24.6482V28.7858C138.096 29.3251 137.979 29.7559 137.743 30.0782C137.514 30.4068 137.21 30.6423 136.832 30.7849C136.454 30.9337 136.048 31.008 135.614 31.008C135.49 31.008 135.329 30.9925 135.13 30.9616C134.932 30.9306 134.743 30.8934 134.563 30.85C134.383 30.8066 134.247 30.7663 134.154 30.7291C133.968 30.6485 133.838 30.5462 133.763 30.4223C133.695 30.3045 133.683 30.1774 133.726 30.041C133.782 29.8613 133.872 29.7373 133.996 29.6691C134.12 29.6071 134.25 29.6009 134.386 29.6505C134.448 29.6691 134.551 29.7063 134.693 29.7621C134.836 29.8179 134.991 29.8675 135.158 29.9109C135.332 29.9605 135.484 29.9853 135.614 29.9853C136.079 29.9853 136.423 29.8923 136.646 29.7063C136.869 29.5204 136.981 29.2631 136.981 28.9346V28.1257L137.092 28.2093C137.092 28.2899 137.049 28.3891 136.962 28.5069C136.881 28.6185 136.767 28.73 136.618 28.8416C136.475 28.9532 136.305 29.0493 136.107 29.1298C135.908 29.2042 135.697 29.2414 135.474 29.2414C135.034 29.2414 134.637 29.1329 134.284 28.916C133.931 28.6928 133.652 28.3891 133.447 28.0048C133.243 27.6143 133.14 27.168 133.14 26.6659C133.14 26.1576 133.243 25.7113 133.447 25.327C133.652 24.9364 133.928 24.6327 134.275 24.4157C134.622 24.1926 135.009 24.081 135.437 24.081ZM135.614 25.1038C135.335 25.1038 135.09 25.172 134.879 25.3084C134.668 25.4447 134.504 25.6307 134.386 25.8662C134.269 26.1018 134.21 26.3683 134.21 26.6659C134.21 26.9572 134.269 27.2206 134.386 27.4562C134.504 27.6917 134.668 27.8777 134.879 28.0141C135.09 28.1505 135.335 28.2186 135.614 28.2186C135.899 28.2186 136.147 28.1505 136.358 28.0141C136.568 27.8777 136.733 27.6917 136.85 27.4562C136.968 27.2206 137.027 26.9572 137.027 26.6659C137.027 26.3683 136.968 26.1018 136.85 25.8662C136.733 25.6307 136.568 25.4447 136.358 25.3084C136.147 25.172 135.899 25.1038 135.614 25.1038ZM138.923 28.3767C138.861 28.2899 138.833 28.1783 138.839 28.042C138.846 27.9056 138.926 27.7878 139.081 27.6886C139.18 27.6267 139.286 27.6019 139.397 27.6143C139.509 27.6205 139.617 27.6763 139.723 27.7816C139.903 27.9614 140.092 28.1009 140.29 28.2C140.488 28.2992 140.736 28.3488 141.034 28.3488C141.127 28.3426 141.229 28.3302 141.341 28.3116C141.452 28.2868 141.548 28.2372 141.629 28.1628C141.716 28.0823 141.759 27.9614 141.759 27.8002C141.759 27.6639 141.713 27.5554 141.62 27.4748C141.527 27.3942 141.403 27.326 141.248 27.2702C141.099 27.2145 140.932 27.1618 140.746 27.1122C140.553 27.0564 140.355 26.9944 140.15 26.9262C139.952 26.858 139.769 26.7712 139.602 26.6659C139.435 26.5543 139.298 26.4086 139.193 26.2289C139.087 26.0491 139.035 25.8228 139.035 25.5501C139.035 25.2402 139.122 24.9767 139.295 24.7598C139.469 24.5428 139.692 24.3755 139.965 24.2577C140.243 24.1399 140.535 24.081 140.839 24.081C141.031 24.081 141.232 24.1058 141.443 24.1554C141.654 24.1988 141.855 24.2732 142.047 24.3786C142.239 24.4777 142.401 24.611 142.531 24.7784C142.599 24.8714 142.639 24.9829 142.652 25.1131C142.664 25.2433 142.605 25.361 142.475 25.4664C142.382 25.5408 142.274 25.5749 142.15 25.5687C142.026 25.5563 141.923 25.5129 141.843 25.4385C141.737 25.3022 141.595 25.1937 141.415 25.1131C141.241 25.0325 141.04 24.9922 140.811 24.9922C140.718 24.9922 140.615 25.0046 140.504 25.0294C140.398 25.048 140.305 25.0945 140.225 25.1689C140.144 25.2371 140.104 25.3486 140.104 25.5036C140.104 25.6462 140.15 25.7609 140.243 25.8476C140.336 25.9282 140.46 25.9964 140.615 26.0522C140.777 26.1018 140.947 26.1514 141.127 26.201C141.313 26.2506 141.502 26.3094 141.694 26.3776C141.886 26.4458 142.063 26.5357 142.224 26.6473C142.385 26.7588 142.515 26.9045 142.614 27.0843C142.714 27.2578 142.763 27.481 142.763 27.7537C142.763 28.0699 142.67 28.3395 142.484 28.5627C142.298 28.7858 142.066 28.9563 141.787 29.0741C141.508 29.1856 141.223 29.2414 140.932 29.2414C140.566 29.2414 140.2 29.1794 139.834 29.0555C139.469 28.9253 139.165 28.699 138.923 28.3767Z" fill="white"/>
<circle cx="111.315" cy="13.1742" r="1.29139" fill="white"/>
<circle cx="152.639" cy="37.967" r="3.35762" fill="white"/>
</svg>
