<svg width="54" height="56" viewBox="0 0 54 56" fill="none" xmlns="http://www.w3.org/2000/svg">
<g clip-path="url(#clip0_2_257)">
<rect width="54" height="56" rx="27" fill="#1565D8"/>
</g>
<path d="M27.7062 34.6032L33.7812 28.5282C34.075 28.2375 34.075 27.7626 33.7812 27.4688L27.7062 21.397C27.4156 21.1032 26.9406 21.1032 26.6469 21.397L25.9531 22.0907C25.6531 22.3876 25.6593 22.872 25.9656 23.1626L29.7312 26.7501H20.75C20.3344 26.7501 20 27.0844 20 27.5001V28.5001C20 28.9157 20.3344 29.2501 20.75 29.2501H29.7312L25.9656 32.8375C25.6625 33.1282 25.6562 33.6125 25.9531 33.9094L26.6469 34.6032C26.9375 34.8969 27.4125 34.8969 27.7062 34.6032Z" fill="white"/>
<defs>
<clipPath id="clip0_2_257">
<rect width="54" height="56" fill="white"/>
</clipPath>
</defs>
</svg>
