<svg width="130" height="59" viewBox="0 0 130 59" fill="none" xmlns="http://www.w3.org/2000/svg">
<circle cx="107.861" cy="22.533" r="15.2526" stroke="black" stroke-width="0.435788"/>
<path d="M23.9208 43.6968C22.9272 43.6968 22.1103 43.2442 21.47 42.3389C20.8517 41.4116 20.5426 40.2634 20.5426 38.8945C20.5426 37.2385 20.653 35.726 20.8738 34.357C21.0946 32.966 21.4589 31.4977 21.9668 29.9521C22.1876 29.2897 22.4967 28.815 22.8941 28.5279C23.2916 28.2409 23.9208 28.0974 24.782 28.0974C25.2677 28.0974 25.5989 28.1746 25.7756 28.3292C25.9743 28.4838 26.0736 28.7156 26.0736 29.0247C26.0736 29.2014 25.9522 29.7975 25.7093 30.8132C25.4885 31.6302 25.3119 32.3698 25.1794 33.0322C24.7378 35.3506 24.517 36.8962 24.517 37.669C24.517 38.1327 24.5722 38.4639 24.6826 38.6626C24.793 38.8393 24.9696 38.9276 25.2125 38.9276C25.5437 38.9276 25.9522 38.5964 26.438 37.934C26.9458 37.2716 27.4757 36.2669 28.0277 34.9201C28.6018 33.5732 29.1538 31.9172 29.6837 29.9521C29.8604 29.2897 30.1253 28.815 30.4786 28.5279C30.8539 28.2409 31.4059 28.0974 32.1346 28.0974C32.6424 28.0974 32.9957 28.1636 33.1944 28.2961C33.3931 28.4065 33.4925 28.6273 33.4925 28.9585C33.4925 29.5105 33.2165 31.023 32.6645 33.4959C32.0463 36.3221 31.7371 38.0665 31.7371 38.7289C31.7371 39.1484 31.8255 39.4796 32.0021 39.7225C32.1787 39.9433 32.4106 40.0537 32.6976 40.0537C33.1392 40.0537 33.6581 39.7887 34.2543 39.2588C34.8725 38.7068 35.6895 37.8236 36.7051 36.6092C36.9701 36.3001 37.2682 36.1455 37.5994 36.1455C37.8864 36.1455 38.1072 36.278 38.2618 36.5429C38.4384 36.8079 38.5267 37.1722 38.5267 37.6359C38.5267 38.5191 38.317 39.2036 37.8975 39.6893C36.948 40.8596 35.9213 41.8201 34.8173 42.5708C33.7354 43.3215 32.4989 43.6968 31.1079 43.6968C30.048 43.6968 29.2642 43.2884 28.7564 42.4714C28.2706 41.6545 28.0277 40.5063 28.0277 39.0269C27.6524 40.5284 27.0893 41.6876 26.3386 42.5045C25.5879 43.2994 24.782 43.6968 23.9208 43.6968ZM53.5272 36.1455C53.8142 36.1455 54.035 36.278 54.1896 36.5429C54.3662 36.8079 54.4546 37.1722 54.4546 37.6359C54.4546 38.5191 54.2448 39.2036 53.8253 39.6893C52.8758 40.8596 51.8491 41.8201 50.7451 42.5708C49.6632 43.3215 48.4267 43.6968 47.0357 43.6968C45.8655 43.6968 44.916 43.2773 44.1874 42.4383C42.9288 43.2553 41.6151 43.6748 40.2461 43.6968C39.9591 47.9583 39.3077 51.5132 38.292 54.3615C37.2764 57.2319 35.786 58.6671 33.8209 58.6671C32.6285 58.6671 31.7453 58.2365 31.1713 57.3754C30.5972 56.5143 30.3101 55.3219 30.3101 53.7984C30.3101 51.6346 30.8069 49.1064 31.8005 46.214C32.7941 43.3436 34.3287 40.1751 36.4042 36.7085C36.4042 33.4849 36.3821 31.2438 36.338 29.9852C36.3159 29.3449 36.5698 28.837 37.0997 28.4617C37.6296 28.0863 38.292 27.8986 39.0869 27.8986C39.5506 27.8986 39.8818 27.998 40.0805 28.1967C40.3013 28.3734 40.4228 28.7377 40.4448 29.2897C40.4448 29.8417 40.4559 30.2502 40.478 30.5151C41.1845 29.6319 41.88 29.0026 42.5645 28.6273C43.249 28.2298 43.9776 28.0311 44.7504 28.0311C45.9869 28.0311 46.9915 28.5279 47.7643 29.5215C48.5592 30.5151 48.9567 31.8178 48.9567 33.4297C48.9567 34.5999 48.769 35.737 48.3936 36.841C48.0183 37.945 47.4994 38.9497 46.837 39.8549C47.3007 39.9874 47.6871 40.0537 47.9962 40.0537C48.7248 40.0537 49.4203 39.7887 50.0827 39.2588C50.7451 38.7289 51.5952 37.8457 52.633 36.6092C52.8979 36.3001 53.196 36.1455 53.5272 36.1455ZM40.4117 40.5173C41.2066 40.3407 41.9352 39.9101 42.5976 39.2257C43.2821 38.5191 43.8231 37.658 44.2205 36.6423C44.6179 35.6045 44.8167 34.5226 44.8167 33.3966C44.8167 32.7342 44.6842 32.2374 44.4192 31.9062C44.1543 31.5529 43.801 31.3762 43.3594 31.3762C42.5645 31.3762 41.604 32.2153 40.478 33.8934C40.4559 34.8649 40.4448 36.289 40.4448 38.1658C40.4448 39.1815 40.4338 39.9653 40.4117 40.5173ZM34.0858 55.4213C34.682 55.4213 35.1788 54.1186 35.5762 51.5132C35.9737 48.9298 36.2276 45.7061 36.338 41.8421C35.3885 44.0501 34.6378 46.1588 34.0858 48.168C33.5338 50.1773 33.2578 51.8664 33.2578 53.2354C33.2578 53.9419 33.3461 54.4829 33.5228 54.8583C33.6773 55.2336 33.865 55.4213 34.0858 55.4213ZM56.1253 25.9115C55.198 25.9115 54.5024 25.7017 54.0388 25.2822C53.5751 24.8406 53.3432 24.2334 53.3432 23.4606C53.3432 22.6878 53.6413 22.0475 54.2375 21.5396C54.8557 21.0097 55.6175 20.7447 56.5227 20.7447C57.3397 20.7447 58.0021 20.9435 58.5099 21.3409C59.0178 21.7383 59.2717 22.3014 59.2717 23.03C59.2717 23.9132 58.9847 24.6198 58.4106 25.1497C57.8365 25.6575 57.0747 25.9115 56.1253 25.9115ZM55.8604 43.6968C54.4252 43.6968 53.3764 43.189 52.714 42.1733C52.0736 41.1577 51.7535 39.8108 51.7535 38.1327C51.7535 37.1391 51.8749 35.8695 52.1178 34.3239C52.3828 32.7562 52.714 31.299 53.1114 29.9521C53.3101 29.2455 53.5751 28.7598 53.9063 28.4948C54.2375 28.2298 54.7674 28.0974 55.496 28.0974C56.6221 28.0974 57.1851 28.4727 57.1851 29.2234C57.1851 29.7754 56.9754 31.0561 56.5559 33.0654C56.026 35.4941 55.761 37.1391 55.761 38.0002C55.761 38.6626 55.8493 39.1705 56.026 39.5237C56.2026 39.877 56.5007 40.0537 56.9202 40.0537C57.3176 40.0537 57.8144 39.7777 58.4106 39.2257C59.0067 38.6737 59.8016 37.8015 60.7952 36.6092C61.0602 36.3001 61.3583 36.1455 61.6895 36.1455C61.9765 36.1455 62.1973 36.278 62.3519 36.5429C62.5285 36.8079 62.6168 37.1722 62.6168 37.6359C62.6168 38.5191 62.4071 39.2036 61.9875 39.6893C59.8016 42.361 57.7592 43.6968 55.8604 43.6968ZM74.7087 36.1455C74.9957 36.1455 75.2165 36.278 75.3711 36.5429C75.5477 36.8079 75.636 37.1722 75.636 37.6359C75.636 38.5191 75.4263 39.2036 75.0068 39.6893C74.0573 40.8596 73.0196 41.8201 71.8935 42.5708C70.7674 43.3215 69.4757 43.6968 68.0185 43.6968C63.5142 43.6968 61.262 40.5284 61.262 34.1914C61.262 33.2199 61.2951 32.2374 61.3614 31.2438H60.0697C59.4073 31.2438 58.9546 31.1223 58.7118 30.8794C58.491 30.6366 58.3806 30.2502 58.3806 29.7202C58.3806 28.4838 58.8774 27.8655 59.871 27.8655H61.7588C62.1342 25.4367 62.7082 23.2177 63.481 21.2084C64.2538 19.1991 65.1812 17.5984 66.2631 16.406C67.3671 15.2137 68.5484 14.6176 69.8069 14.6176C70.7343 14.6176 71.4629 15.026 71.9929 15.843C72.5228 16.66 72.7877 17.6867 72.7877 18.9231C72.7877 22.3455 71.3525 25.3263 68.4821 27.8655H72.1916C72.5449 27.8655 72.7988 27.9428 72.9533 28.0974C73.1079 28.2519 73.1852 28.539 73.1852 28.9585C73.1852 30.482 71.9377 31.2438 69.4426 31.2438H65.402C65.3578 32.3478 65.3358 33.2089 65.3358 33.8271C65.3358 36.1234 65.6007 37.7353 66.1306 38.6626C66.6826 39.59 67.5437 40.0537 68.714 40.0537C69.6634 40.0537 70.5025 39.7666 71.2311 39.1925C71.9597 38.6185 72.8209 37.7573 73.8145 36.6092C74.0794 36.3001 74.3775 36.1455 74.7087 36.1455ZM68.9127 17.7971C68.5815 17.7971 68.2061 18.2166 67.7866 19.0556C67.3892 19.8726 67.0028 21.0207 66.6274 22.5001C66.2742 23.9574 65.9761 25.5803 65.7332 27.3687C67.0359 26.2427 68.0074 24.9841 68.6477 23.5931C69.3101 22.1799 69.6413 20.8993 69.6413 19.7511C69.6413 18.4484 69.3985 17.7971 68.9127 17.7971ZM87.7108 36.1455C87.9979 36.1455 88.2187 36.278 88.3732 36.5429C88.5499 36.8079 88.6382 37.1722 88.6382 37.6359C88.6382 38.5191 88.4284 39.2036 88.0089 39.6893C87.192 40.6829 86.0328 41.5993 84.5313 42.4383C83.052 43.2773 81.4622 43.6968 79.7621 43.6968C77.4437 43.6968 75.6442 43.0676 74.3635 41.809C73.0829 40.5505 72.4426 38.8282 72.4426 36.6423C72.4426 35.1188 72.7627 33.7057 73.403 32.403C74.0434 31.0782 74.9266 30.0294 76.0526 29.2566C77.2008 28.4838 78.4925 28.0974 79.9277 28.0974C81.2083 28.0974 82.235 28.4838 83.0078 29.2566C83.7806 30.0073 84.167 31.034 84.167 32.3367C84.167 33.8602 83.615 35.174 82.511 36.278C81.4291 37.3599 79.5854 38.221 76.98 38.8613C77.532 39.877 78.5808 40.3849 80.1264 40.3849C81.12 40.3849 82.2461 40.0426 83.5046 39.3581C84.7853 38.6516 85.8893 37.7353 86.8166 36.6092C87.0816 36.3001 87.3796 36.1455 87.7108 36.1455ZM79.3646 31.3431C78.5477 31.3431 77.8521 31.8178 77.2781 32.7673C76.7261 33.7167 76.4501 34.8649 76.4501 36.2117V36.278C77.7528 35.9689 78.7795 35.5052 79.5302 34.887C80.2809 34.2687 80.6563 33.5511 80.6563 32.7342C80.6563 32.3146 80.5349 31.9834 80.292 31.7406C80.0712 31.4756 79.7621 31.3431 79.3646 31.3431ZM99.322 32.6348C99.8077 32.6348 100.216 32.8114 100.547 33.1647C100.901 33.4959 101.077 33.9154 101.077 34.4233C101.077 34.7103 101.011 35.0194 100.879 35.3506C100.525 36.1676 100.029 36.8521 99.3882 37.4041C98.7479 37.9561 98.0413 38.2321 97.2685 38.2321C96.6503 38.2321 96.1204 38.0113 95.6788 37.5697C95.2593 37.1281 95.0495 36.5319 95.0495 35.7812C95.0495 35.3617 95.0716 34.909 95.1157 34.4233C95.1599 34.07 95.182 33.8271 95.182 33.6946C95.182 33.518 95.1378 33.3855 95.0495 33.2972C94.9833 33.2089 94.8949 33.1647 94.7845 33.1647C94.4754 33.1647 94.0559 33.5401 93.526 34.2908C92.9961 35.0194 92.4661 35.9909 91.9362 37.2053C91.4063 38.4197 90.9757 39.7004 90.6445 41.0473C90.4017 42.1071 90.1257 42.8137 89.8165 43.1669C89.5074 43.5202 88.9996 43.6968 88.293 43.6968C87.454 43.6968 86.8578 43.2553 86.5046 42.3721C86.1734 41.4889 86.0078 40.0757 86.0078 38.1327C86.0078 35.2623 86.4162 32.5354 87.2332 29.9521C87.4319 29.3118 87.7521 28.8481 88.1937 28.561C88.6574 28.2519 89.2977 28.0974 90.1146 28.0974C90.5562 28.0974 90.8653 28.1526 91.042 28.263C91.2186 28.3734 91.3069 28.5831 91.3069 28.8922C91.3069 29.2455 91.1413 30.0404 90.8101 31.2769C90.5893 32.1601 90.4127 32.9329 90.2802 33.5953C90.1477 34.2577 90.0373 35.0746 89.949 36.0461C90.6777 34.1473 91.4946 32.6017 92.3999 31.4094C93.3052 30.217 94.1884 29.367 95.0495 28.8591C95.9106 28.3513 96.6945 28.0974 97.401 28.0974C98.0413 28.0974 98.5271 28.285 98.8583 28.6604C99.2116 29.0137 99.3882 29.5436 99.3882 30.2502C99.3882 30.6697 99.2668 31.4646 99.0239 32.6348H99.322Z" fill="black"/>
<path d="M21.47 42.3389L21.1072 42.5808L21.1142 42.5906L21.47 42.3389ZM20.8738 34.357L21.304 34.4264L21.3042 34.4254L20.8738 34.357ZM21.9668 29.9521L21.5533 29.8143L21.5528 29.816L21.9668 29.9521ZM22.8941 28.5279L23.1493 28.8812H23.1493L22.8941 28.5279ZM25.7756 28.3292L25.4886 28.6572L25.4981 28.6655L25.508 28.6732L25.7756 28.3292ZM25.7093 30.8132L26.1302 30.927L26.1332 30.9146L25.7093 30.8132ZM25.1794 33.0322L24.7521 32.9468L24.7513 32.9507L25.1794 33.0322ZM24.6826 38.6626L24.3017 38.8743L24.3071 38.8841L24.3131 38.8936L24.6826 38.6626ZM26.438 37.934L26.092 37.6688L26.0865 37.6763L26.438 37.934ZM28.0277 34.9201L27.6268 34.7492L27.6245 34.7548L28.0277 34.9201ZM29.6837 29.9521L30.1045 30.0655L30.1048 30.0644L29.6837 29.9521ZM30.4786 28.5279L30.2138 28.1816L30.2038 28.1897L30.4786 28.5279ZM33.1944 28.2961L32.9527 28.6587L32.9674 28.6685L32.9828 28.677L33.1944 28.2961ZM32.6645 33.4959L32.2392 33.401L32.2388 33.4028L32.6645 33.4959ZM32.0021 39.7225L31.6497 39.9788L31.6556 39.9869L31.6618 39.9947L32.0021 39.7225ZM34.2543 39.2588L34.5438 39.5845L34.5445 39.5839L34.2543 39.2588ZM36.7051 36.6092L36.3742 36.3256L36.3709 36.3296L36.7051 36.6092ZM38.2618 36.5429L37.8853 36.7625L37.8919 36.7738L37.8992 36.7847L38.2618 36.5429ZM37.8975 39.6893L37.5675 39.4044L37.559 39.4148L37.8975 39.6893ZM34.8173 42.5708L34.5722 42.2104L34.5689 42.2127L34.8173 42.5708ZM28.7564 42.4714L28.3817 42.6942L28.3862 42.7015L28.7564 42.4714ZM28.0277 39.0269H28.4635L27.6049 38.9212L28.0277 39.0269ZM26.3386 42.5045L26.6555 42.8038L26.6595 42.7994L26.3386 42.5045ZM23.9208 43.2611C23.0867 43.2611 22.3954 42.8926 21.8258 42.0873L21.1142 42.5906C21.8252 43.5958 22.7678 44.1326 23.9208 44.1326V43.2611ZM21.8326 42.0972C21.272 41.2563 20.9784 40.1972 20.9784 38.8945H20.1068C20.1068 40.3297 20.4315 41.5669 21.1074 42.5807L21.8326 42.0972ZM20.9784 38.8945C20.9784 37.2574 21.0876 35.7685 21.304 34.4264L20.4436 34.2876C20.2185 35.6834 20.1068 37.2195 20.1068 38.8945H20.9784ZM21.3042 34.4254C21.5209 33.0605 21.8791 31.6149 22.3808 30.0881L21.5528 29.816C21.0387 31.3804 20.6684 32.8715 20.4434 34.2887L21.3042 34.4254ZM22.3802 30.0899C22.5839 29.4787 22.8513 29.0964 23.1493 28.8812L22.639 28.1746C22.1421 28.5335 21.7912 29.1007 21.5533 29.8143L22.3802 30.0899ZM23.1493 28.8812C23.4347 28.6751 23.9511 28.5332 24.782 28.5332V27.6616C23.8906 27.6616 23.1484 27.8067 22.639 28.1746L23.1493 28.8812ZM24.782 28.5332C25.2567 28.5332 25.4415 28.616 25.4886 28.6572L26.0625 28.0012C25.7563 27.7333 25.2787 27.6616 24.782 27.6616V28.5332ZM25.508 28.6732C25.5764 28.7264 25.6379 28.8161 25.6379 29.0247H26.5094C26.5094 28.6151 26.3722 28.2412 26.0431 27.9852L25.508 28.6732ZM25.6379 29.0247C25.6379 29.0238 25.6379 29.0266 25.6374 29.0339C25.6369 29.0411 25.6361 29.051 25.6347 29.0639C25.6319 29.09 25.6272 29.1245 25.6204 29.1682C25.6066 29.2558 25.5852 29.3716 25.5555 29.5173C25.4962 29.8084 25.4065 30.2059 25.2855 30.7118L26.1332 30.9146C26.2551 30.4048 26.3474 29.9964 26.4096 29.6913C26.4679 29.405 26.5094 29.1657 26.5094 29.0247H25.6379ZM25.2886 30.6995C25.0659 31.5236 24.8869 32.2729 24.7521 32.9468L25.6067 33.1177C25.7369 32.4668 25.9111 31.7367 26.13 30.9269L25.2886 30.6995ZM24.7513 32.9507C24.3111 35.2616 24.0812 36.848 24.0812 37.669H24.9528C24.9528 36.9444 25.1645 35.4396 25.6075 33.1138L24.7513 32.9507ZM24.0812 37.669C24.0812 38.1447 24.1339 38.5724 24.3017 38.8743L25.0636 38.451C25.0105 38.3554 24.9528 38.1207 24.9528 37.669H24.0812ZM24.3131 38.8936C24.5175 39.2206 24.8487 39.3634 25.2125 39.3634V38.4918C25.0906 38.4918 25.0685 38.4579 25.0522 38.4317L24.3131 38.8936ZM25.2125 39.3634C25.5219 39.3634 25.8027 39.2115 26.0417 39.0177C26.2865 38.8193 26.5353 38.5382 26.7894 38.1917L26.0865 37.6763C25.8549 37.9922 25.6566 38.2079 25.4928 38.3407C25.3234 38.478 25.2343 38.4918 25.2125 38.4918V39.3634ZM26.7838 38.1991C27.3262 37.4916 27.8734 36.4456 28.431 35.0853L27.6245 34.7548C27.078 36.0882 26.5653 37.0516 26.0921 37.6688L26.7838 38.1991ZM28.4286 35.0909C29.013 33.7198 29.5711 32.0433 30.1045 30.0655L29.263 29.8386C28.7364 31.7911 28.1906 33.4266 27.6268 34.7492L28.4286 35.0909ZM30.1048 30.0644C30.2691 29.4483 30.4994 29.0725 30.7534 28.8661L30.2038 28.1897C29.7512 28.5574 29.4516 29.1311 29.2626 29.8398L30.1048 30.0644ZM30.7433 28.8741C31.0113 28.6692 31.4528 28.5332 32.1346 28.5332V27.6616C31.3591 27.6616 30.6966 27.8126 30.2139 28.1818L30.7433 28.8741ZM32.1346 28.5332C32.634 28.5332 32.8705 28.6039 32.9527 28.6587L33.4362 27.9335C33.1209 27.7233 32.6508 27.6616 32.1346 27.6616V28.5332ZM32.9828 28.677C32.9946 28.6836 33.0068 28.6926 33.0206 28.7233C33.0375 28.7608 33.0567 28.8332 33.0567 28.9585H33.9283C33.9283 28.5492 33.8013 28.1347 33.4061 27.9151L32.9828 28.677ZM33.0567 28.9585C33.0567 29.1892 32.9956 29.6679 32.8568 30.4286C32.7203 31.1769 32.5146 32.167 32.2392 33.401L33.0898 33.5909C33.3664 32.3519 33.5748 31.3493 33.7142 30.5851C33.8514 29.8333 33.9283 29.2797 33.9283 28.9585H33.0567ZM32.2388 33.4028C31.9291 34.8185 31.6959 35.9675 31.5399 36.8478C31.3859 37.7168 31.3014 38.3541 31.3014 38.7289H32.1729C32.1729 38.4412 32.243 37.8752 32.3981 36.9999C32.5512 36.1358 32.7817 34.9995 33.0902 33.589L32.2388 33.4028ZM31.3014 38.7289C31.3014 39.2049 31.4011 39.637 31.6497 39.9788L32.3545 39.4661C32.2498 39.3221 32.1729 39.0919 32.1729 38.7289H31.3014ZM31.6618 39.9947C31.9226 40.3207 32.2805 40.4894 32.6976 40.4894V39.6179C32.5406 39.6179 32.4349 39.5658 32.3424 39.4502L31.6618 39.9947ZM32.6976 40.4894C33.3038 40.4894 33.9255 40.1341 34.5438 39.5845L33.9647 38.9331C33.3907 39.4433 32.9747 39.6179 32.6976 39.6179V40.4894ZM34.5445 39.5839C35.1869 39.0103 36.02 38.1076 37.0394 36.8888L36.3709 36.3296C35.3589 37.5396 34.5581 38.4032 33.964 38.9337L34.5445 39.5839ZM37.036 36.8928C37.2389 36.6561 37.4241 36.5813 37.5994 36.5813V35.7097C37.1123 35.7097 36.7013 35.944 36.3743 36.3256L37.036 36.8928ZM37.5994 36.5813C37.7189 36.5813 37.8023 36.6202 37.8853 36.7625L38.6382 36.3234C38.4121 35.9357 38.054 35.7097 37.5994 35.7097V36.5813ZM37.8992 36.7847C38.0109 36.9523 38.0909 37.221 38.0909 37.6359H38.9625C38.9625 37.1234 38.8659 36.6635 38.6244 36.3012L37.8992 36.7847ZM38.0909 37.6359C38.0909 38.4538 37.8969 39.0233 37.5676 39.4045L38.2273 39.9742C38.7371 39.3839 38.9625 38.5844 38.9625 37.6359H38.0909ZM37.559 39.4148C36.633 40.5562 35.6369 41.4864 34.5723 42.2104L35.0623 42.9311C36.2057 42.1537 37.263 41.163 38.2359 39.9639L37.559 39.4148ZM34.5689 42.2127C33.5641 42.9099 32.4154 43.2611 31.1079 43.2611V44.1326C32.5824 44.1326 33.9066 43.7331 35.0657 42.9288L34.5689 42.2127ZM31.1079 43.2611C30.1803 43.2611 29.5456 42.9156 29.1265 42.2413L28.3862 42.7015C28.9828 43.6612 29.9157 44.1326 31.1079 44.1326V43.2611ZM29.1309 42.2487C28.7016 41.5267 28.4635 40.4678 28.4635 39.0269H27.5919C27.5919 40.5448 27.8396 41.7822 28.3818 42.6941L29.1309 42.2487ZM27.6049 38.9212C27.2406 40.3785 26.7036 41.4632 26.0177 42.2097L26.6595 42.7994C27.475 41.9119 28.0641 40.6783 28.4505 39.1326L27.6049 38.9212ZM26.0218 42.2053C25.3298 42.9379 24.6316 43.2611 23.9208 43.2611V44.1326C24.9323 44.1326 25.8459 43.6609 26.6554 42.8038L26.0218 42.2053ZM54.1896 36.5429L53.8132 36.7625L53.8198 36.7738L53.827 36.7847L54.1896 36.5429ZM53.8253 39.6893L53.4953 39.4044L53.4869 39.4148L53.8253 39.6893ZM50.7451 42.5708L50.5001 42.2104L50.4967 42.2127L50.7451 42.5708ZM44.1874 42.4383L44.5164 42.1526L44.268 41.8664L43.9501 42.0728L44.1874 42.4383ZM40.2461 43.6968L40.2391 43.2611L39.8383 43.2676L39.8113 43.6676L40.2461 43.6968ZM38.292 54.3615L37.8816 54.2151L37.8812 54.2161L38.292 54.3615ZM31.8005 46.214L31.3887 46.0714L31.3884 46.0724L31.8005 46.214ZM36.4042 36.7085L36.7781 36.9324L36.84 36.829V36.7085H36.4042ZM36.338 29.9852L35.9024 30.0002L35.9024 30.0005L36.338 29.9852ZM37.0997 28.4617L37.3516 28.8173H37.3516L37.0997 28.4617ZM40.0805 28.1967L39.7724 28.5049L39.7894 28.5219L39.8083 28.537L40.0805 28.1967ZM40.4448 29.2897H40.8806V29.281L40.8803 29.2723L40.4448 29.2897ZM40.478 30.5151L40.0437 30.5513L40.1346 31.642L40.8183 30.7874L40.478 30.5151ZM42.5645 28.6273L42.7741 29.0095L42.7833 29.0042L42.5645 28.6273ZM47.7643 29.5215L47.4203 29.7891L47.424 29.7938L47.7643 29.5215ZM48.3936 36.841L47.981 36.7007L48.3936 36.841ZM46.837 39.8549L46.4853 39.5976L46.1161 40.1022L46.7173 40.274L46.837 39.8549ZM50.0827 39.2588L50.355 39.5991L50.0827 39.2588ZM52.633 36.6092L52.3021 36.3256L52.2992 36.329L52.633 36.6092ZM40.4117 40.5173L39.9763 40.4999L39.9537 41.0655L40.5063 40.9427L40.4117 40.5173ZM42.5976 39.2257L42.2846 38.9224L42.2845 38.9226L42.5976 39.2257ZM44.2205 36.6423L44.6263 36.8011L44.6275 36.7982L44.2205 36.6423ZM44.4192 31.9062L44.0704 32.1678L44.0789 32.1784L44.4192 31.9062ZM40.478 33.8934L40.1161 33.6505L40.0452 33.7562L40.0423 33.8835L40.478 33.8934ZM35.5762 51.5131L35.1455 51.4469L35.1454 51.4474L35.5762 51.5131ZM36.338 41.8421L36.7736 41.8546L35.9376 41.67L36.338 41.8421ZM34.0858 48.168L33.6656 48.0526L34.0858 48.168ZM33.5228 54.8583L33.9257 54.6923L33.9217 54.6824L33.9171 54.6727L33.5228 54.8583ZM53.5272 36.5813C53.6467 36.5813 53.7302 36.6202 53.8132 36.7625L54.566 36.3234C54.3399 35.9357 53.9818 35.7097 53.5272 35.7097V36.5813ZM53.827 36.7847C53.9388 36.9523 54.0188 37.221 54.0188 37.6359H54.8904C54.8904 37.1234 54.7937 36.6635 54.5522 36.3012L53.827 36.7847ZM54.0188 37.6359C54.0188 38.4538 53.8247 39.0233 53.4955 39.4045L54.1551 39.9742C54.6649 39.3839 54.8904 38.5844 54.8904 37.6359H54.0188ZM53.4869 39.4148C52.5608 40.5562 51.5648 41.4864 50.5001 42.2104L50.9902 42.9311C52.1335 42.1537 53.1909 41.163 54.1637 39.9639L53.4869 39.4148ZM50.4967 42.2127C49.492 42.9099 48.3432 43.2611 47.0357 43.2611V44.1326C48.5102 44.1326 49.8345 43.7331 50.9936 42.9288L50.4967 42.2127ZM47.0357 43.2611C45.9841 43.2611 45.1574 42.8907 44.5164 42.1526L43.8584 42.724C44.6746 43.664 45.7469 44.1326 47.0357 44.1326V43.2611ZM43.9501 42.0728C42.7534 42.8496 41.5185 43.2405 40.2391 43.2611L40.2531 44.1326C41.7117 44.1091 43.1043 43.6609 44.4247 42.8038L43.9501 42.0728ZM39.8113 43.6676C39.526 47.9041 38.8795 51.4165 37.8816 54.2151L38.7025 54.5078C39.7359 51.6098 40.3922 48.0125 40.6809 43.7261L39.8113 43.6676ZM37.8812 54.2161C36.8876 57.0243 35.5056 58.2313 33.8209 58.2313V59.1028C36.0663 59.1028 37.6652 57.4394 38.7029 54.5068L37.8812 54.2161ZM33.8209 58.2313C32.7485 58.2313 32.0138 57.8535 31.5339 57.1336L30.8087 57.6171C31.4769 58.6195 32.5086 59.1028 33.8209 59.1028V58.2313ZM31.5339 57.1336C31.0251 56.3705 30.7459 55.2743 30.7459 53.7984H29.8744C29.8744 55.3696 30.1693 56.658 30.8087 57.6171L31.5339 57.1336ZM30.7459 53.7984C30.7459 51.6982 31.2288 49.2197 32.2127 46.3555L31.3884 46.0724C30.3851 48.9931 29.8744 51.571 29.8744 53.7984H30.7459ZM32.2124 46.3565C33.1935 43.522 34.7133 40.3811 36.7781 36.9324L36.0303 36.4847C33.9441 39.9691 32.3947 43.1652 31.3887 46.0714L32.2124 46.3565ZM36.84 36.7085C36.84 33.4852 36.818 31.2371 36.7735 29.9699L35.9024 30.0005C35.9463 31.2505 35.9684 33.4845 35.9684 36.7085H36.84ZM36.7735 29.9702C36.7566 29.4788 36.9394 29.1093 37.3516 28.8173L36.8478 28.1061C36.2002 28.5648 35.8752 29.2109 35.9024 30.0002L36.7735 29.9702ZM37.3516 28.8173C37.7928 28.5048 38.3618 28.3344 39.0869 28.3344V27.4629C38.2223 27.4629 37.4665 27.6678 36.8478 28.1061L37.3516 28.8173ZM39.0869 28.3344C39.5064 28.3344 39.6948 28.4273 39.7724 28.5049L40.3887 27.8886C40.0688 27.5687 39.5948 27.4629 39.0869 27.4629V28.3344ZM39.8083 28.537C39.8695 28.586 39.988 28.7733 40.0094 29.3071L40.8803 29.2723C40.8575 28.702 40.7332 28.1608 40.3528 27.8564L39.8083 28.537ZM40.0091 29.2897C40.0091 29.8438 40.02 30.2674 40.0437 30.5513L40.9122 30.4789C40.8917 30.233 40.8806 29.8395 40.8806 29.2897H40.0091ZM40.8183 30.7874C41.5037 29.9306 42.1573 29.3476 42.7741 29.0094L42.355 28.2452C41.6028 28.6577 40.8653 29.3333 40.1377 30.2429L40.8183 30.7874ZM42.7833 29.0042C43.403 28.6443 44.0564 28.4669 44.7504 28.4669V27.5953C43.8988 27.5953 43.095 27.8154 42.3457 28.2504L42.7833 29.0042ZM44.7504 28.4669C45.8496 28.4669 46.7284 28.8994 47.4204 29.7891L48.1083 29.254C47.2547 28.1565 46.1242 27.5953 44.7504 27.5953V28.4669ZM47.424 29.7938C48.1422 30.6914 48.5209 31.8899 48.5209 33.4297H49.3924C49.3924 31.7458 48.9763 30.3388 48.1046 29.2493L47.424 29.7938ZM48.5209 33.4297C48.5209 34.5524 48.341 35.6421 47.981 36.7007L48.8062 36.9813C49.197 35.832 49.3924 34.6475 49.3924 33.4297H48.5209ZM47.981 36.7007C47.6193 37.7645 47.1205 38.7294 46.4853 39.5976L47.1887 40.1123C47.8782 39.1699 48.4172 38.1255 48.8062 36.9813L47.981 36.7007ZM46.7173 40.274C47.2007 40.4121 47.6306 40.4894 47.9962 40.4894V39.6179C47.7436 39.6179 47.4006 39.5627 46.9567 39.4359L46.7173 40.274ZM47.9962 40.4894C48.8395 40.4894 49.6286 40.1802 50.355 39.5991L49.8105 38.9185C49.2121 39.3972 48.6101 39.6179 47.9962 39.6179V40.4894ZM50.355 39.5991C51.0517 39.0417 51.9239 38.1319 52.9668 36.8893L52.2992 36.329C51.2665 37.5594 50.4386 38.416 49.8105 38.9185L50.355 39.5991ZM52.9638 36.8928C53.1667 36.6561 53.3519 36.5813 53.5272 36.5813V35.7097C53.0401 35.7097 52.6292 35.944 52.3021 36.3256L52.9638 36.8928ZM40.5063 40.9427C41.3978 40.7446 42.1994 40.2639 42.9108 39.5287L42.2845 38.9226C41.6711 39.5564 41.0154 39.9368 40.3172 40.0919L40.5063 40.9427ZM42.9106 39.5289C43.6395 38.7765 44.2101 37.8647 44.6263 36.8011L43.8147 36.4835C43.436 37.4512 42.9247 38.2617 42.2846 38.9224L42.9106 39.5289ZM44.6275 36.7982C45.0442 35.71 45.2525 34.5752 45.2525 33.3966H44.3809C44.3809 34.4701 44.1917 35.4991 43.8135 36.4865L44.6275 36.7982ZM45.2525 33.3966C45.2525 32.6876 45.1126 32.0752 44.7595 31.6339L44.0789 32.1784C44.2558 32.3995 44.3809 32.7807 44.3809 33.3966H45.2525ZM44.7679 31.6447C44.4206 31.1817 43.9382 30.9405 43.3594 30.9405V31.812C43.6638 31.812 43.8879 31.9241 44.0706 32.1676L44.7679 31.6447ZM43.3594 30.9405C42.8089 30.9405 42.2706 31.228 41.7562 31.6773C41.2356 32.1321 40.6895 32.796 40.1161 33.6505L40.8398 34.1362C41.3925 33.3126 41.8897 32.718 42.3296 32.3337C42.7757 31.944 43.115 31.812 43.3594 31.812V30.9405ZM40.0423 33.8835C40.0201 34.86 40.0091 36.2882 40.0091 38.1658H40.8806C40.8806 36.2899 40.8917 34.8697 40.9136 33.9033L40.0423 33.8835ZM40.0091 38.1658C40.0091 39.1796 39.998 39.9566 39.9763 40.4999L40.8472 40.5348C40.8696 39.974 40.8806 39.1834 40.8806 38.1658H40.0091ZM34.0858 55.8571C34.4114 55.8571 34.6653 55.6751 34.8482 55.4571C35.0296 55.2409 35.1808 54.9454 35.3127 54.5995C35.5779 53.9041 35.807 52.8903 36.007 51.5789L35.1454 51.4474C34.948 52.7415 34.7299 53.6818 34.4983 54.289C34.3819 54.5944 34.2723 54.7875 34.1805 54.8969C34.09 55.0047 34.0583 54.9855 34.0858 54.9855V55.8571ZM36.0069 51.5794C36.4081 48.972 36.6629 45.7289 36.7736 41.8546L35.9024 41.8297C35.7923 45.6833 35.5392 48.8876 35.1455 51.4469L36.0069 51.5794ZM35.9376 41.67C34.9814 43.8937 34.2236 46.0213 33.6656 48.0526L34.506 48.2835C35.052 46.2962 35.7956 44.2066 36.7383 42.0143L35.9376 41.67ZM33.6656 48.0526C33.108 50.0821 32.822 51.8128 32.822 53.2354H33.6936C33.6936 51.9201 33.9596 50.2726 34.506 48.2835L33.6656 48.0526ZM32.822 53.2354C32.822 53.967 32.9117 54.5832 33.1285 55.0438L33.9171 54.6727C33.7806 54.3826 33.6936 53.9168 33.6936 53.2354H32.822ZM33.1198 55.0242C33.2824 55.419 33.5726 55.8571 34.0858 55.8571V54.9855C34.1138 54.9855 34.1174 55.0022 34.0876 54.9724C34.0501 54.9349 33.9915 54.8521 33.9257 54.6923L33.1198 55.0242ZM54.0388 25.2822L53.7381 25.5978L53.7464 25.6053L54.0388 25.2822ZM54.2375 21.5396L54.5201 21.8714L54.5211 21.8705L54.2375 21.5396ZM58.5099 21.3409L58.2414 21.6841L58.5099 21.3409ZM58.4106 25.1497L58.6994 25.4762L58.7062 25.4699L58.4106 25.1497ZM52.714 42.1733L52.3453 42.4058L52.3489 42.4114L52.714 42.1733ZM52.1178 34.3239L51.6881 34.2513L51.6873 34.2563L52.1178 34.3239ZM53.1114 29.9521L53.5294 30.0754L53.5309 30.0701L53.1114 29.9521ZM53.9063 28.4948L53.634 28.1545L53.9063 28.4948ZM56.5559 33.0654L56.9817 33.1583L56.9825 33.1544L56.5559 33.0654ZM58.4106 39.2257L58.1145 38.9059L58.4106 39.2257ZM60.7952 36.6092L60.4643 36.3256L60.4604 36.3302L60.7952 36.6092ZM62.3519 36.5429L61.9754 36.7625L61.982 36.7738L61.9893 36.7847L62.3519 36.5429ZM61.9875 39.6893L61.6576 39.4044L61.6503 39.4134L61.9875 39.6893ZM56.1253 25.4757C55.2549 25.4757 54.6835 25.2779 54.3311 24.959L53.7464 25.6053C54.3213 26.1255 55.141 26.3472 56.1253 26.3472V25.4757ZM54.3393 24.9666C53.9795 24.6239 53.779 24.1407 53.779 23.4606H52.9074C52.9074 24.3261 53.1707 25.0572 53.7382 25.5977L54.3393 24.9666ZM53.779 23.4606C53.779 22.8174 54.0196 22.2977 54.5201 21.8714L53.9549 21.2079C53.263 21.7972 52.9074 22.5581 52.9074 23.4606H53.779ZM54.5211 21.8705C55.0514 21.416 55.709 21.1805 56.5228 21.1805V20.309C55.5259 20.309 54.6601 20.6034 53.9539 21.2087L54.5211 21.8705ZM56.5228 21.1805C57.2687 21.1805 57.8287 21.3611 58.2414 21.6841L58.7785 20.9977C58.1755 20.5258 57.4107 20.309 56.5228 20.309V21.1805ZM58.2414 21.6841C58.629 21.9875 58.8359 22.4156 58.8359 23.03H59.7075C59.7075 22.1871 59.4066 21.4892 58.7785 20.9977L58.2414 21.6841ZM58.8359 23.03C58.8359 23.8091 58.5876 24.3932 58.115 24.8295L58.7062 25.4699C59.3817 24.8463 59.7075 24.0173 59.7075 23.03H58.8359ZM58.1218 24.8233C57.6452 25.2449 56.9948 25.4757 56.1253 25.4757V26.3472C57.1547 26.3472 58.0278 26.0701 58.6993 25.4761L58.1218 24.8233ZM55.8604 43.2611C54.5411 43.2611 53.6452 42.8035 53.079 41.9353L52.3489 42.4114C53.1075 43.5745 54.3092 44.1326 55.8604 44.1326V43.2611ZM53.0826 41.9409C52.5003 41.0173 52.1893 39.7599 52.1893 38.1327H51.3177C51.3177 39.8617 51.647 41.298 52.3453 42.4057L53.0826 41.9409ZM52.1893 38.1327C52.1893 37.1708 52.3072 35.9259 52.5483 34.3916L51.6873 34.2563C51.4426 35.8131 51.3177 37.1074 51.3177 38.1327H52.1893ZM52.5475 34.3965C52.8099 32.8438 53.1374 31.4036 53.5294 30.0754L52.6934 29.8287C52.2905 31.1943 51.9556 32.6687 51.6881 34.2513L52.5475 34.3965ZM53.5309 30.0701C53.721 29.3941 53.9538 29.0149 54.1785 28.8351L53.634 28.1545C53.1964 28.5047 52.8992 29.0969 52.6919 29.8341L53.5309 30.0701ZM54.1785 28.8351C54.3939 28.6628 54.8021 28.5332 55.496 28.5332V27.6616C54.7327 27.6616 54.081 27.7969 53.634 28.1545L54.1785 28.8351ZM55.496 28.5332C56.0244 28.5332 56.3445 28.6237 56.5211 28.7415C56.6666 28.8385 56.7494 28.975 56.7494 29.2234H57.6209C57.6209 28.7211 57.4222 28.2947 57.0046 28.0163C56.6182 27.7587 56.0937 27.6616 55.496 27.6616V28.5332ZM56.7494 29.2234C56.7494 29.7208 56.5518 30.9526 56.1293 32.9763L56.9825 33.1544C57.399 31.1596 57.6209 29.8301 57.6209 29.2234H56.7494ZM56.1301 32.9725C55.6016 35.3947 55.3252 37.0847 55.3252 38.0002H56.1968C56.1968 37.1935 56.4503 35.5936 56.9816 33.1583L56.1301 32.9725ZM55.3252 38.0002C55.3252 38.6902 55.4154 39.277 55.6362 39.7186L56.4157 39.3288C56.2832 39.0639 56.1968 38.635 56.1968 38.0002H55.3252ZM55.6362 39.7186C55.7565 39.9594 55.9291 40.1594 56.1598 40.2961C56.389 40.4319 56.6487 40.4894 56.9202 40.4894V39.6179C56.7721 39.6179 56.673 39.5871 56.6042 39.5463C56.5368 39.5064 56.472 39.4414 56.4157 39.3288L55.6362 39.7186ZM56.9202 40.4894C57.4964 40.4894 58.1014 40.1059 58.7067 39.5454L58.1145 38.9059C57.5275 39.4494 57.1389 39.6179 56.9202 39.6179V40.4894ZM58.7067 39.5454C59.3239 38.9739 60.1331 38.0844 61.13 36.8882L60.4604 36.3302C59.4701 37.5186 58.6896 38.3734 58.1145 38.9059L58.7067 39.5454ZM61.1261 36.8928C61.3289 36.6561 61.5141 36.5813 61.6895 36.5813V35.7097C61.2024 35.7097 60.7914 35.944 60.4643 36.3256L61.1261 36.8928ZM61.6895 36.5813C61.8089 36.5813 61.8924 36.6202 61.9754 36.7625L62.7283 36.3234C62.5022 35.9357 62.1441 35.7097 61.6895 35.7097V36.5813ZM61.9893 36.7847C62.101 36.9523 62.181 37.221 62.181 37.6359H63.0526C63.0526 37.1234 62.956 36.6635 62.7145 36.3012L61.9893 36.7847ZM62.181 37.6359C62.181 38.4538 61.9869 39.0233 61.6577 39.4045L62.3173 39.9742C62.8272 39.3839 63.0526 38.5844 63.0526 37.6359H62.181ZM61.6503 39.4134C59.4836 42.0615 57.5536 43.2611 55.8604 43.2611V44.1326C57.9649 44.1326 60.1196 42.6605 62.3248 39.9653L61.6503 39.4134ZM75.3711 36.5429L74.9947 36.7625L75.0012 36.7738L75.0085 36.7847L75.3711 36.5429ZM75.0068 39.6893L74.6768 39.4044L74.6684 39.4148L75.0068 39.6893ZM71.8935 42.5708L71.6518 42.2082L71.8935 42.5708ZM61.3614 31.2438L61.7962 31.2727L61.8272 30.808H61.3614V31.2438ZM58.7118 30.8794L58.3893 31.1726L58.3963 31.1803L58.4036 31.1876L58.7118 30.8794ZM61.7588 27.8655V28.3013H62.1324L62.1895 27.9321L61.7588 27.8655ZM63.481 21.2084L63.0743 21.052L63.481 21.2084ZM66.2631 16.406L65.9433 16.1099L65.9404 16.1132L66.2631 16.406ZM71.9929 15.843L72.3585 15.6058L71.9929 15.843ZM68.4821 27.8655L68.1934 27.5391L67.3318 28.3013H68.4821V27.8655ZM65.402 31.2438V30.808H64.9833L64.9666 31.2263L65.402 31.2438ZM66.1306 38.6626L65.7522 38.8789L65.7562 38.8855L66.1306 38.6626ZM71.2311 39.1925L71.5008 39.5348L71.2311 39.1925ZM73.8145 36.6092L74.144 36.8944L74.1453 36.8928L73.8145 36.6092ZM67.7866 19.0556L67.3968 18.8607L67.3948 18.865L67.7866 19.0556ZM66.6274 22.5001L66.205 22.3929L66.2039 22.3974L66.6274 22.5001ZM65.7332 27.3687L65.3014 27.3101L65.1463 28.4521L66.0182 27.6984L65.7332 27.3687ZM68.6477 23.5931L68.2531 23.4081L68.2519 23.4108L68.6477 23.5931ZM74.7087 36.5813C74.8282 36.5813 74.9117 36.6202 74.9947 36.7625L75.7475 36.3234C75.5214 35.9357 75.1633 35.7097 74.7087 35.7097V36.5813ZM75.0085 36.7847C75.1203 36.9523 75.2003 37.221 75.2003 37.6359H76.0718C76.0718 37.1234 75.9752 36.6635 75.7337 36.3012L75.0085 36.7847ZM75.2003 37.6359C75.2003 38.4538 75.0062 39.0233 74.677 39.4045L75.3366 39.9742C75.8464 39.3839 76.0718 38.5844 76.0718 37.6359H75.2003ZM74.6684 39.4148C73.7434 40.5548 72.7375 41.4844 71.6518 42.2082L72.1352 42.9334C73.3017 42.1558 74.3712 41.1644 75.3452 39.9639L74.6684 39.4148ZM71.6518 42.2082C70.6028 42.9075 69.3966 43.2611 68.0185 43.2611V44.1326C69.5549 44.1326 70.932 43.7355 72.1352 42.9334L71.6518 42.2082ZM68.0185 43.2611C65.8817 43.2611 64.3368 42.5178 63.3063 41.068C62.2564 39.5909 61.6978 37.3215 61.6978 34.1914H60.8262C60.8262 37.3983 61.3937 39.8816 62.5959 41.573C63.8176 43.2917 65.6509 44.1326 68.0185 44.1326V43.2611ZM61.6978 34.1914C61.6978 33.2298 61.7306 32.2569 61.7962 31.2727L60.9265 31.2148C60.8597 32.2178 60.8262 33.21 60.8262 34.1914H61.6978ZM61.3614 30.808H60.0697V31.6795H61.3614V30.808ZM60.0697 30.808C59.428 30.808 59.1323 30.6837 59.0199 30.5713L58.4036 31.1876C58.777 31.561 59.3865 31.6795 60.0697 31.6795V30.808ZM59.0342 30.5863C58.9198 30.4605 58.8164 30.2047 58.8164 29.7202H57.9448C57.9448 30.2956 58.0621 30.8127 58.3893 31.1726L59.0342 30.5863ZM58.8164 29.7202C58.8164 29.1489 58.933 28.8011 59.0929 28.6022C59.2381 28.4215 59.4697 28.3013 59.871 28.3013V27.4297C59.2787 27.4297 58.765 27.6187 58.4135 28.0562C58.0765 28.4755 57.9448 29.0551 57.9448 29.7202H58.8164ZM59.871 28.3013H61.7588V27.4297H59.871V28.3013ZM62.1895 27.9321C62.5607 25.5298 63.1276 23.3414 63.8878 21.3649L63.0743 21.052C62.2889 23.094 61.7076 25.3437 61.3281 27.799L62.1895 27.9321ZM63.8878 21.3649C64.6474 19.3899 65.5501 17.8404 66.5858 16.6989L65.9404 16.1132C64.8123 17.3563 63.8603 19.0084 63.0743 21.052L63.8878 21.3649ZM66.5829 16.7021C67.6298 15.5714 68.7027 15.0533 69.8069 15.0533V14.1818C68.3941 14.1818 67.1044 14.856 65.9433 16.11L66.5829 16.7021ZM69.8069 15.0533C70.578 15.0533 71.1728 15.3796 71.6272 16.0801L72.3585 15.6058C71.753 14.6725 70.8906 14.1818 69.8069 14.1818V15.0533ZM71.6272 16.0801C72.1005 16.8097 72.3519 17.7483 72.3519 18.9231H73.2235C73.2235 17.6251 72.9451 16.5102 72.3585 15.6058L71.6272 16.0801ZM72.3519 18.9231C72.3519 22.2049 70.9828 25.0716 68.1934 27.5391L68.7709 28.1919C71.7223 25.5811 73.2235 22.4861 73.2235 18.9231H72.3519ZM68.4821 28.3013H72.1916V27.4297H68.4821V28.3013ZM72.1916 28.3013C72.4975 28.3013 72.6105 28.3708 72.6452 28.4055L73.2615 27.7892C72.9871 27.5148 72.5922 27.4297 72.1916 27.4297V28.3013ZM72.6452 28.4055C72.6695 28.4298 72.7494 28.5604 72.7494 28.9585H73.621C73.621 28.5175 73.5463 28.074 73.2615 27.7892L72.6452 28.4055ZM72.7494 28.9585C72.7494 29.5762 72.51 30.0028 72.0224 30.3005C71.4999 30.6196 70.66 30.808 69.4426 30.808V31.6795C70.7203 31.6795 71.7517 31.487 72.4766 31.0444C73.2366 30.5804 73.621 29.8643 73.621 28.9585H72.7494ZM69.4426 30.808H65.402V31.6795H69.4426V30.808ZM64.9666 31.2263C64.9223 32.3324 64.9 33.2002 64.9 33.8271H65.7715C65.7715 33.2175 65.7934 32.3631 65.8374 31.2612L64.9666 31.2263ZM64.9 33.8271C64.9 36.1307 65.1612 37.8444 65.7523 38.8788L66.509 38.4464C66.0402 37.6261 65.7715 36.1162 65.7715 33.8271H64.9ZM65.7562 38.8855C66.3944 39.9578 67.4058 40.4894 68.714 40.4894V39.6179C67.6817 39.6179 66.9708 39.2221 66.5051 38.4397L65.7562 38.8855ZM68.714 40.4894C69.7588 40.4894 70.6934 40.171 71.5008 39.5348L70.9614 38.8502C70.3116 39.3622 69.5681 39.6179 68.714 39.6179V40.4894ZM71.5008 39.5348C72.2604 38.9364 73.1422 38.052 74.144 36.8944L73.4849 36.324C72.4996 37.4627 71.659 38.3006 70.9614 38.8502L71.5008 39.5348ZM74.1453 36.8928C74.3482 36.6561 74.5334 36.5813 74.7087 36.5813V35.7097C74.2216 35.7097 73.8107 35.944 73.4836 36.3256L74.1453 36.8928ZM68.9127 17.3613C68.5593 17.3613 68.2732 17.5806 68.058 17.8211C67.8331 18.0725 67.6141 18.4263 67.3968 18.8607L68.1764 19.2505C68.3787 18.8459 68.5571 18.5704 68.7076 18.4023C68.8677 18.2233 68.9349 18.2329 68.9127 18.2329V17.3613ZM67.3948 18.865C66.9785 19.7206 66.5835 20.9014 66.205 22.3929L67.0498 22.6073C67.4221 21.1401 67.7999 20.0246 68.1785 19.2463L67.3948 18.865ZM66.2039 22.3974C65.8465 23.8718 65.5459 25.5097 65.3014 27.3101L66.165 27.4274C66.4063 25.6508 66.7018 24.043 67.051 22.6028L66.2039 22.3974ZM66.0182 27.6984C67.3621 26.5367 68.3742 25.2295 69.0436 23.7753L68.2519 23.4108C67.6406 24.7387 66.7097 25.9486 65.4482 27.039L66.0182 27.6984ZM69.0423 23.778C69.7226 22.3267 70.0771 20.9819 70.0771 19.7511H69.2056C69.2056 20.8167 68.8976 22.0332 68.2532 23.4081L69.0423 23.778ZM70.0771 19.7511C70.0771 19.0851 70.0167 18.5334 69.8675 18.1333C69.7919 17.9305 69.6833 17.7385 69.5219 17.5943C69.3515 17.4419 69.142 17.3613 68.9127 17.3613V18.2329C68.9263 18.2329 68.9293 18.2336 68.941 18.2441C68.9619 18.2627 69.0051 18.315 69.0509 18.4378C69.1446 18.6891 69.2056 19.1145 69.2056 19.7511H70.0771ZM88.3732 36.5429L87.9968 36.7625L88.0034 36.7738L88.0106 36.7847L88.3732 36.5429ZM88.0089 39.6893L87.679 39.4044L87.6723 39.4126L88.0089 39.6893ZM84.5313 42.4383L84.3187 42.0579L84.3163 42.0592L84.5313 42.4383ZM74.3635 41.809L74.669 41.4982L74.3635 41.809ZM73.403 32.403L73.7941 32.5952L73.7954 32.5926L73.403 32.403ZM76.0526 29.2566L75.8093 28.895L75.806 28.8973L76.0526 29.2566ZM83.0078 29.2566L82.6996 29.5647L82.7042 29.5691L83.0078 29.2566ZM82.511 36.278L82.2029 35.9698L82.511 36.278ZM76.98 38.8613L76.876 38.4381L76.3273 38.573L76.5971 39.0694L76.98 38.8613ZM83.5046 39.3581L83.7128 39.741L83.7151 39.7397L83.5046 39.3581ZM86.8166 36.6092L86.4857 36.3255L86.4802 36.3322L86.8166 36.6092ZM77.2781 32.7673L76.9051 32.5418L76.9013 32.5482L77.2781 32.7673ZM76.4501 36.278H76.0143V36.8293L76.5507 36.702L76.4501 36.278ZM79.5302 34.887L79.2532 34.5506L79.5302 34.887ZM80.292 31.7406L79.9572 32.0195L79.9699 32.0347L79.9838 32.0487L80.292 31.7406ZM87.7108 36.5813C87.8303 36.5813 87.9138 36.6202 87.9968 36.7625L88.7497 36.3234C88.5236 35.9357 88.1654 35.7097 87.7108 35.7097V36.5813ZM88.0106 36.7847C88.1224 36.9523 88.2024 37.221 88.2024 37.6359H89.074C89.074 37.1234 88.9774 36.6635 88.7358 36.3012L88.0106 36.7847ZM88.2024 37.6359C88.2024 38.4538 88.0083 39.0233 87.6791 39.4045L88.3387 39.9742C88.8486 39.3839 89.074 38.5844 89.074 37.6359H88.2024ZM87.6723 39.4126C86.8994 40.3527 85.7878 41.2369 84.3187 42.0579L84.7439 42.8187C86.2777 41.9616 87.4846 41.0132 88.3455 39.9661L87.6723 39.4126ZM84.3163 42.0592C82.9025 42.8611 81.3868 43.2611 79.7621 43.2611V44.1326C81.5376 44.1326 83.2014 43.6936 84.7463 42.8174L84.3163 42.0592ZM79.7621 43.2611C77.5233 43.2611 75.8463 42.6553 74.669 41.4982L74.0581 42.1198C75.442 43.4799 77.3641 44.1326 79.7621 44.1326V43.2611ZM74.669 41.4982C73.4893 40.3388 72.8784 38.7385 72.8784 36.6423H72.0068C72.0068 38.918 72.6765 40.7621 74.0581 42.1198L74.669 41.4982ZM72.8784 36.6423C72.8784 35.182 73.1847 33.8351 73.7941 32.5952L73.0119 32.2107C72.3408 33.5762 72.0068 35.0555 72.0068 36.6423H72.8784ZM73.7954 32.5926C74.4054 31.3306 75.2405 30.3425 76.2992 29.6159L75.806 28.8973C74.6126 29.7163 73.6814 30.8257 73.0107 32.2133L73.7954 32.5926ZM76.296 29.6181C77.3694 28.8956 78.5758 28.5332 79.9277 28.5332V27.6616C78.4092 27.6616 77.0321 28.072 75.8093 28.895L76.296 29.6181ZM79.9277 28.5332C81.1141 28.5332 82.0226 28.8876 82.6997 29.5647L83.316 28.9484C82.4475 28.0799 81.3025 27.6616 79.9277 27.6616V28.5332ZM82.7042 29.5691C83.3753 30.2211 83.7312 31.1254 83.7312 32.3367H84.6028C84.6028 30.9426 84.186 29.7935 83.3115 28.944L82.7042 29.5691ZM83.7312 32.3367C83.7312 33.7415 83.2274 34.9453 82.2029 35.9698L82.8192 36.5861C84.0026 35.4027 84.6028 33.979 84.6028 32.3367H83.7312ZM82.2029 35.9698C81.2053 36.9674 79.4549 37.8044 76.876 38.4381L77.084 39.2845C79.716 38.6377 81.6529 37.7524 82.8192 36.5861L82.2029 35.9698ZM76.5971 39.0694C77.251 40.2725 78.483 40.8206 80.1264 40.8206V39.9491C78.6786 39.9491 77.813 39.4815 77.3629 38.6532L76.5971 39.0694ZM80.1264 40.8206C81.2178 40.8206 82.4168 40.4458 83.7128 39.741L83.2964 38.9753C82.0753 39.6394 81.0222 39.9491 80.1264 39.9491V40.8206ZM83.7151 39.7397C85.0438 39.0066 86.1906 38.0549 87.153 36.8862L86.4802 36.3322C85.5879 37.4156 84.5267 38.2965 83.2941 38.9766L83.7151 39.7397ZM87.1475 36.8928C87.3503 36.6561 87.5355 36.5813 87.7108 36.5813V35.7097C87.2238 35.7097 86.8128 35.944 86.4857 36.3256L87.1475 36.8928ZM79.3646 30.9073C78.3425 30.9073 77.5265 31.5142 76.9052 32.5418L77.651 32.9928C78.1778 32.1215 78.7528 31.7789 79.3646 31.7789V30.9073ZM76.9013 32.5482C76.3028 33.5777 76.0143 34.8053 76.0143 36.2117H76.8859C76.8859 34.9245 77.1494 33.8557 77.6548 32.9863L76.9013 32.5482ZM76.0143 36.2117V36.278H76.8859V36.2117H76.0143ZM76.5507 36.702C77.8951 36.383 78.9896 35.8967 79.8073 35.2234L79.2532 34.5506C78.5694 35.1137 77.6105 35.5547 76.3495 35.854L76.5507 36.702ZM79.8073 35.2234C80.6373 34.5398 81.0921 33.7065 81.0921 32.7342H80.2205C80.2205 33.3957 79.9246 33.9976 79.2532 34.5506L79.8073 35.2234ZM81.0921 32.7342C81.0921 32.2263 80.9422 31.7744 80.6001 31.4324L79.9838 32.0487C80.1276 32.1924 80.2205 32.403 80.2205 32.7342H81.0921ZM80.6268 31.4616C80.31 31.0815 79.8694 30.9073 79.3646 30.9073V31.7789C79.6547 31.7789 79.8323 31.8697 79.9572 32.0195L80.6268 31.4616ZM100.547 33.1647L100.229 33.4628L100.239 33.473L100.249 33.4826L100.547 33.1647ZM100.879 35.3506L101.279 35.5237L101.283 35.5125L100.879 35.3506ZM99.3882 37.4041L99.6727 37.7341L99.3882 37.4041ZM95.6788 37.5697L95.3627 37.8699L95.3706 37.8778L95.6788 37.5697ZM95.1157 34.4233L94.6833 34.3692L94.6824 34.3765L94.6817 34.3838L95.1157 34.4233ZM95.0495 33.2972L94.7009 33.5587L94.7194 33.5834L94.7413 33.6053L95.0495 33.2972ZM93.526 34.2908L93.8784 34.5471L93.882 34.5421L93.526 34.2908ZM91.9362 37.2053L91.5368 37.0311L91.9362 37.2053ZM90.6445 41.0473L90.2213 40.9432L90.2198 40.9499L90.6445 41.0473ZM89.8166 43.1669L89.4886 42.88L89.8166 43.1669ZM86.5046 42.3721L86.0964 42.5251L86.0999 42.5339L86.5046 42.3721ZM87.2332 29.9521L87.6487 30.0835L87.6494 30.0812L87.2332 29.9521ZM88.1937 28.561L88.4312 28.9265L88.4354 28.9236L88.1937 28.561ZM90.8101 31.2769L90.3891 31.1641L90.3874 31.1712L90.8101 31.2769ZM89.949 36.0461L89.515 36.0067L90.3559 36.2023L89.949 36.0461ZM92.3999 31.4094L92.0528 31.1458L92.3999 31.4094ZM98.8583 28.6604L98.5315 28.9487L98.5405 28.9589L98.5501 28.9686L98.8583 28.6604ZM99.0239 32.6348L98.5972 32.5462L98.4884 33.0706H99.0239V32.6348ZM99.322 33.0706C99.6877 33.0706 99.981 33.1977 100.229 33.4628L100.865 32.8667C100.451 32.4252 99.9277 32.199 99.322 32.199V33.0706ZM100.249 33.4826C100.51 33.727 100.642 34.0293 100.642 34.4233H101.513C101.513 33.8016 101.291 33.2648 100.845 32.8468L100.249 33.4826ZM100.642 34.4233C100.642 34.6432 100.591 34.897 100.474 35.1888L101.283 35.5125C101.431 35.1419 101.513 34.7774 101.513 34.4233H100.642ZM100.479 35.1777C100.15 35.9375 99.6915 36.5672 99.1037 37.074L99.6727 37.7341C100.366 37.1369 100.901 36.3977 101.279 35.5236L100.479 35.1777ZM99.1037 37.074C98.5345 37.5647 97.9268 37.7963 97.2685 37.7963V38.6679C98.1559 38.6679 98.9613 38.3474 99.6727 37.7341L99.1037 37.074ZM97.2685 37.7963C96.7672 37.7963 96.3477 37.6223 95.9869 37.2615L95.3706 37.8778C95.893 38.4002 96.5334 38.6679 97.2685 38.6679V37.7963ZM95.9947 37.2695C95.6691 36.9268 95.4853 36.4475 95.4853 35.7812H94.6137C94.6137 36.6163 94.8494 37.3294 95.3628 37.8698L95.9947 37.2695ZM95.4853 35.7812C95.4853 35.3768 95.5066 34.9374 95.5497 34.4627L94.6817 34.3838C94.6366 34.8806 94.6137 35.3466 94.6137 35.7812H95.4853ZM95.5482 34.4773C95.592 34.1263 95.6178 33.858 95.6178 33.6946H94.7462C94.7462 33.7963 94.7278 34.0137 94.6833 34.3692L95.5482 34.4773ZM95.6178 33.6946C95.6178 33.4508 95.5565 33.1879 95.3576 32.989L94.7413 33.6053C94.7323 33.5963 94.7322 33.5909 94.7354 33.6006C94.7394 33.6124 94.7462 33.6413 94.7462 33.6946H95.6178ZM95.3981 33.0357C95.2496 32.8377 95.0321 32.7289 94.7845 32.7289V33.6005C94.7802 33.6005 94.7619 33.5992 94.7387 33.5876C94.7155 33.576 94.7035 33.5622 94.7009 33.5587L95.3981 33.0357ZM94.7845 32.7289C94.464 32.7289 94.1785 32.9148 93.9475 33.1215C93.7027 33.3404 93.4436 33.6518 93.17 34.0395L93.882 34.5421C94.1383 34.179 94.3539 33.9274 94.5286 33.771C94.7172 33.6023 94.796 33.6005 94.7845 33.6005V32.7289ZM93.1735 34.0345C92.6186 34.7976 92.074 35.7999 91.5368 37.0311L92.3356 37.3796C92.8582 36.182 93.3736 35.2413 93.8784 34.5471L93.1735 34.0345ZM91.5368 37.0311C90.9965 38.2692 90.5582 39.5734 90.2214 40.9432L91.0677 41.1513C91.3933 39.8274 91.8161 38.5703 92.3356 37.3796L91.5368 37.0311ZM90.2198 40.9499C89.977 42.0091 89.7188 42.6169 89.4886 42.88L90.1445 43.4539C90.5326 43.0104 90.8263 42.2051 91.0693 41.1446L90.2198 40.9499ZM89.4886 42.88C89.2966 43.0993 88.9379 43.2611 88.293 43.2611V44.1326C89.0613 44.1326 89.7182 43.9411 90.1445 43.4539L89.4886 42.88ZM88.293 43.2611C87.9541 43.2611 87.6894 43.1735 87.476 43.0155C87.2588 42.8546 87.0641 42.5976 86.9092 42.2102L86.0999 42.5339C86.2982 43.0297 86.5783 43.4351 86.9572 43.7158C87.34 43.9994 87.7929 44.1326 88.293 44.1326V43.2611ZM86.9126 42.219C86.6105 41.4134 86.4435 40.0669 86.4435 38.1327H85.572C85.572 40.0846 85.7362 41.5643 86.0965 42.5251L86.9126 42.219ZM86.4435 38.1327C86.4435 35.3042 86.846 32.6219 87.6487 30.0835L86.8177 29.8207C85.9865 32.449 85.572 35.2204 85.572 38.1327H86.4435ZM87.6494 30.0812C87.8264 29.511 88.096 29.1443 88.4312 28.9264L87.9562 28.1957C87.4081 28.5519 87.0375 29.1125 86.817 29.8229L87.6494 30.0812ZM88.4354 28.9236C88.8014 28.6797 89.3457 28.5332 90.1146 28.5332V27.6616C89.2496 27.6616 88.5133 27.8242 87.9519 28.1984L88.4354 28.9236ZM90.1146 28.5332C90.5475 28.5332 90.7467 28.5923 90.811 28.6325L91.2729 27.8934C90.984 27.7128 90.5649 27.6616 90.1146 27.6616V28.5332ZM90.811 28.6325C90.8161 28.6357 90.8264 28.6421 90.8391 28.6722C90.8542 28.7081 90.8712 28.7762 90.8712 28.8922H91.7427C91.7427 28.5111 91.6316 28.1176 91.2729 27.8934L90.811 28.6325ZM90.8712 28.8922C90.8712 29.02 90.8386 29.2685 90.7561 29.6645C90.6757 30.0507 90.5537 30.5499 90.3892 31.1641L91.2311 31.3896C91.3978 30.7674 91.5242 30.2509 91.6094 29.8422C91.6925 29.4433 91.7427 29.1178 91.7427 28.8922H90.8712ZM90.3874 31.1712C90.1654 32.059 89.9871 32.8388 89.8529 33.5098L90.7076 33.6807C90.8383 33.027 91.0133 32.2612 91.2329 31.3826L90.3874 31.1712ZM89.8529 33.5098C89.7164 34.1924 89.6042 35.0259 89.515 36.0067L90.383 36.0856C90.4705 35.1234 90.5791 34.3229 90.7076 33.6807L89.8529 33.5098ZM90.3559 36.2023C91.0747 34.3291 91.8737 32.8231 92.747 31.6729L92.0528 31.1458C91.1155 32.3803 90.2807 33.9655 89.5422 35.89L90.3559 36.2023ZM92.747 31.6729C93.6334 30.5054 94.4765 29.703 95.2709 29.2345L94.8281 28.4838C93.9002 29.031 92.9769 29.9287 92.0528 31.1458L92.747 31.6729ZM95.2709 29.2345C96.0913 28.7507 96.7981 28.5332 97.401 28.5332V27.6616C96.5908 27.6616 95.7299 27.9519 94.8281 28.4838L95.2709 29.2345ZM97.401 28.5332C97.9536 28.5332 98.3049 28.6919 98.5315 28.9487L99.1851 28.3721C98.7493 27.8782 98.129 27.6616 97.401 27.6616V28.5332ZM98.5501 28.9686C98.7929 29.2113 98.9524 29.6108 98.9524 30.2502H99.824C99.824 29.4764 99.6303 28.8161 99.1664 28.3523L98.5501 28.9686ZM98.9524 30.2502C98.9524 30.6181 98.8413 31.3702 98.5972 32.5462L99.4506 32.7234C99.6923 31.5589 99.824 30.7213 99.824 30.2502H98.9524ZM99.0239 33.0706H99.322V32.199H99.0239V33.0706Z" fill="white"/>
<path d="M23.4558 21.2199C23.4558 21.8823 23.3123 22.3791 23.0253 22.7103C22.7603 23.0415 22.3187 23.2071 21.7005 23.2071C21.6563 23.6708 21.557 24.4767 21.4024 25.6249C21.1816 27.1705 21.0602 28.0316 21.0381 28.2082C19.073 42.8472 14.9771 50.1667 8.7506 50.1667C6.91796 50.1667 5.48277 49.6478 4.44501 48.6101C3.42933 47.5723 2.92149 46.2696 2.92149 44.7019C2.92149 41.8978 4.11381 39.4248 6.49845 37.2831C8.88308 35.1192 12.0184 33.3308 15.9045 31.9176C16.1474 30.35 16.3351 28.9479 16.4675 27.7114L17.0637 22.7103C15.7389 22.5778 14.5024 22.5116 13.3543 22.5116C10.2852 22.5116 8.02196 22.8097 6.56469 23.4058C5.10741 24.002 4.37877 24.9735 4.37877 26.3204C4.37877 26.9828 4.59957 27.7004 5.04117 28.4732C5.17365 28.694 5.23989 28.9258 5.23989 29.1687C5.23989 29.6324 4.99701 30.0519 4.51125 30.4272C4.04757 30.7805 3.53973 30.9572 2.98773 30.9572C2.28118 30.9572 1.74022 30.6591 1.36486 30.0629C0.746619 29.0472 0.4375 27.866 0.4375 26.5191C0.4375 21.2199 5.07429 18.5703 14.3479 18.5703C17.0416 18.5703 19.4483 18.8353 21.568 19.3652C22.8266 19.6743 23.4558 20.2925 23.4558 21.2199ZM9.18116 46.6229C10.2631 46.6229 11.345 45.8059 12.4269 44.172C13.5088 42.5381 14.4583 39.6787 15.2752 35.594C9.88772 37.9565 7.19396 40.849 7.19396 44.2714C7.19396 45.0221 7.3706 45.6072 7.72388 46.0267C8.07716 46.4242 8.56292 46.6229 9.18116 46.6229Z" fill="black"/>
<path fill-rule="evenodd" clip-rule="evenodd" d="M21.8326 25.6578L21.8321 25.6613C21.6109 27.21 21.4903 28.0654 21.4688 28.2371L21.4683 28.241C20.4831 35.5799 18.9588 41.1337 16.871 44.8647C14.7765 48.6077 12.0738 50.5774 8.74889 50.5774C6.83105 50.5774 5.27386 50.0318 4.13515 48.8931L4.13184 48.8898C3.02973 47.7637 2.48399 46.3484 2.48399 44.6768C2.48399 41.731 3.74316 39.1456 6.20475 36.9344C8.59079 34.7696 11.6979 32.9852 15.5112 31.572C15.7344 30.1117 15.9081 28.8011 16.0325 27.6398L16.0331 27.6347L16.5764 23.0767C15.4306 22.9736 14.3561 22.9222 13.3526 22.9222C10.2966 22.9222 8.10383 23.2212 6.72798 23.784C6.05108 24.0609 5.57717 24.4112 5.27217 24.8179C4.9706 25.22 4.81285 25.7052 4.81285 26.2952C4.81285 26.8591 5.00075 27.5009 5.4157 28.2281C5.58461 28.5112 5.67397 28.8185 5.67397 29.1435C5.67397 29.7833 5.33114 30.318 4.776 30.7469L4.77365 30.7487C4.23861 31.1564 3.63901 31.3678 2.98602 31.3678C2.13026 31.3678 1.4498 30.9933 0.994368 30.27L0.990854 30.2644C0.325753 29.1717 0 27.9099 0 26.4939C0 23.6865 1.24431 21.5556 3.69717 20.154C6.11362 18.7732 9.68215 18.1094 14.3462 18.1094C17.0673 18.1094 19.5103 18.3769 21.6713 18.9171C22.3428 19.0821 22.897 19.341 23.2876 19.7247C23.6903 20.1203 23.8899 20.6208 23.8899 21.1948C23.8899 21.9068 23.7377 22.5223 23.3584 22.9642C23.0533 23.3414 22.6103 23.5339 22.0937 23.5954C22.0395 24.0805 21.9523 24.7689 21.8326 25.6578ZM21.6988 23.182C22.317 23.182 22.7586 23.0164 23.0236 22.6852C23.3106 22.354 23.4541 21.8572 23.4541 21.1948C23.4541 20.2674 22.8249 19.6492 21.5663 19.34C19.4466 18.8101 17.0399 18.5452 14.3462 18.5452C5.07258 18.5452 0.435788 21.1948 0.435788 26.4939C0.435788 27.8408 0.744908 29.0221 1.36315 30.0378C1.73851 30.6339 2.27946 30.932 2.98602 30.932C3.53802 30.932 4.04586 30.7554 4.50954 30.4021C4.9953 30.0267 5.23818 29.6072 5.23818 29.1435C5.23818 28.9007 5.17194 28.6688 5.03946 28.448C4.59786 27.6752 4.37706 26.9576 4.37706 26.2952C4.37706 24.9483 5.1057 23.9768 6.56297 23.3807C8.02025 22.7845 10.2834 22.4864 13.3526 22.4864C14.3744 22.4864 15.4663 22.5389 16.628 22.6438C16.7716 22.6568 16.9162 22.6706 17.0619 22.6852C17.0619 22.6852 17.062 22.6852 17.0619 22.6852L16.4658 27.6863C16.3333 28.9227 16.1457 30.3248 15.9028 31.8925C12.0167 33.3056 8.88137 35.0941 6.49673 37.2579C4.1121 39.3997 2.91978 41.8726 2.91978 44.6768C2.91978 46.2445 3.42762 47.5472 4.4433 48.5849C5.48106 49.6227 6.91625 50.1416 8.74889 50.1416C14.9754 50.1416 19.0713 42.8221 21.0364 28.1831C21.0585 28.0064 21.1799 27.1453 21.4007 25.5997C21.5553 24.4516 21.6546 23.6456 21.6988 23.182ZM9.17945 46.162C10.0286 46.162 10.9969 45.5146 12.0618 43.9063C13.0215 42.457 13.899 39.9451 14.6732 36.3204C9.85811 38.5919 7.62804 41.2556 7.62804 44.2462C7.62804 44.9288 7.78773 45.4002 8.05177 45.7164C8.30833 46.0026 8.66598 46.162 9.17945 46.162ZM7.72217 46.0016C7.36889 45.5821 7.19225 44.9969 7.19225 44.2462C7.19225 40.929 9.72301 38.1096 14.7845 35.7881C14.945 35.7145 15.108 35.6414 15.2735 35.5688C15.2381 35.7459 15.2024 35.9207 15.1665 36.0932C14.374 39.8992 13.4602 42.5838 12.4252 44.1469C11.3433 45.7808 10.2614 46.5977 9.17945 46.5977C8.56121 46.5977 8.07545 46.399 7.72217 46.0016Z" fill="white"/>
<path d="M100.343 20.0481C100.845 20.0481 101.219 20.1658 101.465 20.4011C101.711 20.6364 101.834 20.9842 101.834 21.4444C101.834 21.6902 101.774 21.9072 101.653 22.0955C101.533 22.2785 101.355 22.4223 101.12 22.5269C100.885 22.6263 100.594 22.6759 100.249 22.6759L100.281 22.3229C100.443 22.3229 100.628 22.3465 100.838 22.3935C101.047 22.4354 101.248 22.5138 101.442 22.6289C101.64 22.7387 101.802 22.8956 101.928 23.0995C102.059 23.2982 102.124 23.5545 102.124 23.8682C102.124 24.2134 102.067 24.4958 101.952 24.7154C101.842 24.9351 101.695 25.105 101.512 25.2253C101.329 25.3456 101.133 25.4292 100.924 25.4763C100.715 25.5181 100.513 25.5391 100.32 25.5391H98.3667C98.2308 25.5391 98.1157 25.4946 98.0216 25.4057C97.9327 25.3116 97.8882 25.1965 97.8882 25.0606V20.5266C97.8882 20.3907 97.9327 20.2782 98.0216 20.1893C98.1157 20.0952 98.2308 20.0481 98.3667 20.0481H100.343ZM100.202 20.9737H98.806L98.908 20.8482V22.268L98.8139 22.1974H100.226C100.377 22.1974 100.513 22.1478 100.634 22.0484C100.754 21.949 100.814 21.8052 100.814 21.617C100.814 21.3921 100.757 21.23 100.642 21.1306C100.532 21.026 100.385 20.9737 100.202 20.9737ZM100.265 23.1231H98.8374L98.908 23.0603V24.7154L98.8295 24.637H100.32C100.56 24.637 100.751 24.5742 100.893 24.4487C101.034 24.318 101.104 24.1245 101.104 23.8682C101.104 23.6329 101.057 23.463 100.963 23.3584C100.869 23.2538 100.757 23.1884 100.626 23.1623C100.495 23.1361 100.375 23.1231 100.265 23.1231ZM103.947 25.0606C103.947 25.1965 103.9 25.3116 103.805 25.4057C103.717 25.4946 103.604 25.5391 103.468 25.5391C103.337 25.5391 103.228 25.4946 103.139 25.4057C103.05 25.3116 103.005 25.1965 103.005 25.0606V20.2129C103.005 20.0769 103.05 19.9645 103.139 19.8756C103.233 19.7814 103.348 19.7344 103.484 19.7344C103.62 19.7344 103.73 19.7814 103.813 19.8756C103.902 19.9645 103.947 20.0769 103.947 20.2129V25.0606ZM109.036 23.4447C109.036 23.8735 108.939 24.2526 108.745 24.5821C108.557 24.9063 108.301 25.1599 107.977 25.343C107.658 25.526 107.3 25.6175 106.902 25.6175C106.505 25.6175 106.144 25.526 105.82 25.343C105.501 25.1599 105.244 24.9063 105.051 24.5821C104.863 24.2526 104.768 23.8735 104.768 23.4447C104.768 23.0158 104.863 22.6393 105.051 22.3151C105.244 21.9856 105.501 21.7294 105.82 21.5464C106.144 21.3581 106.505 21.264 106.902 21.264C107.3 21.264 107.658 21.3581 107.977 21.5464C108.301 21.7294 108.557 21.9856 108.745 22.3151C108.939 22.6393 109.036 23.0158 109.036 23.4447ZM108.094 23.4447C108.094 23.178 108.039 22.9479 107.93 22.7544C107.825 22.5557 107.681 22.4014 107.498 22.2916C107.32 22.1817 107.122 22.1268 106.902 22.1268C106.682 22.1268 106.481 22.1817 106.298 22.2916C106.12 22.4014 105.976 22.5557 105.867 22.7544C105.762 22.9479 105.71 23.178 105.71 23.4447C105.71 23.7061 105.762 23.9362 105.867 24.135C105.976 24.3284 106.12 24.4801 106.298 24.5899C106.481 24.6997 106.682 24.7546 106.902 24.7546C107.122 24.7546 107.32 24.6997 107.498 24.5899C107.681 24.4801 107.825 24.3284 107.93 24.135C108.039 23.9362 108.094 23.7061 108.094 23.4447ZM111.601 21.264C111.821 21.264 112.022 21.298 112.205 21.366C112.388 21.4339 112.545 21.5202 112.676 21.6248C112.812 21.7294 112.916 21.8366 112.989 21.9464C113.068 22.051 113.107 22.1399 113.107 22.2131L112.903 22.3151V21.7425C112.903 21.6065 112.948 21.4941 113.036 21.4052C113.125 21.311 113.238 21.264 113.374 21.264C113.51 21.264 113.622 21.3084 113.711 21.3973C113.8 21.4862 113.844 21.6013 113.844 21.7425V25.2331C113.844 25.6881 113.745 26.0515 113.546 26.3235C113.353 26.6006 113.097 26.7994 112.778 26.9196C112.459 27.0451 112.116 27.1079 111.75 27.1079C111.645 27.1079 111.509 27.0948 111.342 27.0687C111.175 27.0425 111.015 27.0112 110.864 26.9745C110.712 26.9379 110.597 26.904 110.518 26.8726C110.362 26.8046 110.252 26.7183 110.189 26.6137C110.131 26.5144 110.121 26.4072 110.158 26.2921C110.205 26.1405 110.28 26.0359 110.385 25.9783C110.49 25.926 110.599 25.9208 110.715 25.9626C110.767 25.9783 110.853 26.0097 110.973 26.0568C111.094 26.1038 111.224 26.1457 111.366 26.1823C111.512 26.2241 111.64 26.245 111.75 26.245C112.142 26.245 112.432 26.1666 112.621 26.0097C112.809 25.8528 112.903 25.6358 112.903 25.3586V24.6762L112.997 24.7468C112.997 24.8148 112.961 24.8985 112.887 24.9978C112.819 25.0919 112.723 25.1861 112.597 25.2802C112.477 25.3743 112.333 25.4554 112.166 25.5234C111.998 25.5861 111.821 25.6175 111.632 25.6175C111.261 25.6175 110.926 25.526 110.628 25.343C110.33 25.1547 110.095 24.8985 109.922 24.5742C109.75 24.2448 109.663 23.8682 109.663 23.4447C109.663 23.0158 109.75 22.6393 109.922 22.3151C110.095 21.9856 110.328 21.7294 110.62 21.5464C110.913 21.3581 111.24 21.264 111.601 21.264ZM111.75 22.1268C111.515 22.1268 111.308 22.1844 111.13 22.2994C110.952 22.4145 110.814 22.5713 110.715 22.7701C110.615 22.9688 110.565 23.1936 110.565 23.4447C110.565 23.6904 110.615 23.9127 110.715 24.1114C110.814 24.3101 110.952 24.467 111.13 24.5821C111.308 24.6971 111.515 24.7546 111.75 24.7546C111.991 24.7546 112.2 24.6971 112.377 24.5821C112.555 24.467 112.694 24.3101 112.793 24.1114C112.893 23.9127 112.942 23.6904 112.942 23.4447C112.942 23.1936 112.893 22.9688 112.793 22.7701C112.694 22.5713 112.555 22.4145 112.377 22.2994C112.2 22.1844 111.991 22.1268 111.75 22.1268ZM114.542 24.888C114.49 24.8148 114.466 24.7207 114.471 24.6056C114.477 24.4906 114.545 24.3912 114.675 24.3075C114.759 24.2552 114.848 24.2343 114.942 24.2448C115.036 24.25 115.128 24.2971 115.217 24.386C115.368 24.5376 115.528 24.6553 115.695 24.739C115.862 24.8226 116.072 24.8645 116.323 24.8645C116.401 24.8592 116.487 24.8488 116.581 24.8331C116.676 24.8122 116.757 24.7703 116.825 24.7076C116.898 24.6396 116.934 24.5376 116.934 24.4017C116.934 24.2866 116.895 24.1951 116.817 24.1271C116.738 24.0591 116.634 24.0016 116.503 23.9545C116.377 23.9075 116.236 23.863 116.079 23.8212C115.917 23.7741 115.75 23.7218 115.577 23.6643C115.41 23.6068 115.256 23.5336 115.115 23.4447C114.973 23.3505 114.858 23.2276 114.769 23.076C114.681 22.9243 114.636 22.7335 114.636 22.5034C114.636 22.2419 114.709 22.0196 114.856 21.8366C115.002 21.6536 115.19 21.5124 115.42 21.413C115.656 21.3137 115.902 21.264 116.158 21.264C116.32 21.264 116.49 21.2849 116.668 21.3267C116.846 21.3633 117.015 21.4261 117.178 21.515C117.34 21.5987 117.476 21.7111 117.585 21.8523C117.643 21.9307 117.677 22.0249 117.687 22.1347C117.698 22.2445 117.648 22.3439 117.538 22.4328C117.46 22.4955 117.368 22.5243 117.264 22.519C117.159 22.5086 117.073 22.472 117.005 22.4092C116.916 22.2942 116.796 22.2027 116.644 22.1347C116.498 22.0667 116.328 22.0327 116.134 22.0327C116.056 22.0327 115.97 22.0432 115.875 22.0641C115.787 22.0798 115.708 22.119 115.64 22.1817C115.572 22.2393 115.538 22.3334 115.538 22.4641C115.538 22.5844 115.577 22.6812 115.656 22.7544C115.734 22.8224 115.839 22.8799 115.97 22.9269C116.106 22.9688 116.249 23.0106 116.401 23.0525C116.558 23.0943 116.717 23.144 116.88 23.2015C117.042 23.259 117.191 23.3348 117.327 23.429C117.463 23.5231 117.572 23.646 117.656 23.7977C117.74 23.9441 117.782 24.1323 117.782 24.3624C117.782 24.6291 117.703 24.8566 117.546 25.0449C117.389 25.2331 117.193 25.3769 116.958 25.4763C116.723 25.5704 116.482 25.6175 116.236 25.6175C115.928 25.6175 115.619 25.5652 115.311 25.4606C115.002 25.3508 114.746 25.1599 114.542 24.888Z" fill="black"/>
<circle cx="91.3004" cy="11.6363" r="1.08947" fill="black"/>
<circle cx="126.169" cy="32.567" r="2.83262" fill="black"/>
</svg>
