<svg width="17" height="4" viewBox="0 0 17 4" fill="none" xmlns="http://www.w3.org/2000/svg">
<path d="M2.11307 3.11053C1.69859 3.11053 1.3578 2.99079 1.0907 2.75132C0.832804 2.50263 0.703857 2.19868 0.703857 1.83947C0.703857 1.47105 0.832804 1.1625 1.0907 0.913816C1.3578 0.665131 1.69859 0.540789 2.11307 0.540789C2.51833 0.540789 2.84991 0.665131 3.1078 0.913816C3.37491 1.1625 3.50846 1.47105 3.50846 1.83947C3.50846 2.19868 3.37491 2.50263 3.1078 2.75132C2.84991 2.99079 2.51833 3.11053 2.11307 3.11053ZM8.51225 3.11053C8.09778 3.11053 7.75699 2.99079 7.48988 2.75132C7.23199 2.50263 7.10304 2.19868 7.10304 1.83947C7.10304 1.47105 7.23199 1.1625 7.48988 0.913816C7.75699 0.665131 8.09778 0.540789 8.51225 0.540789C8.91751 0.540789 9.24909 0.665131 9.50699 0.913816C9.77409 1.1625 9.90765 1.47105 9.90765 1.83947C9.90765 2.19868 9.77409 2.50263 9.50699 2.75132C9.24909 2.99079 8.91751 3.11053 8.51225 3.11053ZM14.9114 3.11053C14.497 3.11053 14.1562 2.99079 13.8891 2.75132C13.6312 2.50263 13.5022 2.19868 13.5022 1.83947C13.5022 1.47105 13.6312 1.1625 13.8891 0.913816C14.1562 0.665131 14.497 0.540789 14.9114 0.540789C15.3167 0.540789 15.6483 0.665131 15.9062 0.913816C16.1733 1.1625 16.3068 1.47105 16.3068 1.83947C16.3068 2.19868 16.1733 2.50263 15.9062 2.75132C15.6483 2.99079 15.3167 3.11053 14.9114 3.11053Z" fill="#7A7A7A"/>
</svg>
