<svg width="100" height="100" viewBox="0 0 100 100" fill="none" xmlns="http://www.w3.org/2000/svg">
<path fill-rule="evenodd" clip-rule="evenodd" d="M50 4.37114e-06C22.3858 6.78525e-06 -6.78525e-06 22.3858 -4.37114e-06 50C-1.95703e-06 77.6142 22.3858 100 50 100C77.6142 100 100 77.6142 100 50C100 22.3858 77.6142 1.95703e-06 50 4.37114e-06ZM56.9431 74.7831C58.3629 76.2661 60.7162 76.3172 62.1991 74.8974C63.6821 73.4775 63.7333 71.1243 62.3134 69.6413L43.9182 50.4286L63.0004 31.3464C64.4521 29.8947 64.4521 27.5409 63.0004 26.0891C61.5486 24.6374 59.1948 24.6374 57.7431 26.0891L36.0888 47.7434C34.6593 49.1729 34.6342 51.4827 36.0323 52.943L56.9431 74.7831Z" fill="1565D8"/>
</svg>
