<svg width="100" height="100" viewBox="0 0 100 100" fill="none" xmlns="http://www.w3.org/2000/svg">
<path fill-rule="evenodd" clip-rule="evenodd" d="M50 100C77.6142 100 100 77.6142 100 50C100 22.3858 77.6142 0 50 0C22.3858 0 0 22.3858 0 50C0 77.6142 22.3858 100 50 100ZM42.1461 26.1466C40.7263 24.6636 38.373 24.6124 36.8901 26.0323C35.4071 27.4522 35.3559 29.8054 36.7758 31.2884L55.171 50.5011L36.0888 69.5833C34.6371 71.035 34.6371 73.3888 36.0888 74.8406C37.5406 76.2923 39.8944 76.2923 41.3461 74.8406L63.0004 53.1863C64.4299 51.7568 64.455 49.447 63.0569 47.9867L42.1461 26.1466Z" fill="black"/>
</svg>
