<svg width="24" height="24" viewBox="0 0 24 24" fill="none" xmlns="http://www.w3.org/2000/svg">
<g id="Iconsax/Linear/share">
<path id="Vector" d="M17.0137 6.21454C18.9975 7.59333 20.3664 9.78551 20.6442 12.3149M3.65229 12.3645C3.77701 11.1516 4.16027 9.97944 4.77627 8.92711C5.39226 7.87479 6.22667 6.96673 7.22326 6.26414M8.31439 20.8654C9.46504 21.4507 10.7744 21.778 12.1532 21.778C13.4824 21.778 14.7322 21.4804 15.8531 20.9349M12.1532 7.7322C12.8845 7.7322 13.5859 7.44167 14.1031 6.92453C14.6202 6.40738 14.9108 5.70598 14.9108 4.97462C14.9108 4.24327 14.6202 3.54186 14.1031 3.02472C13.5859 2.50757 12.8845 2.21704 12.1532 2.21704C11.4218 2.21704 10.7204 2.50757 10.2033 3.02472C9.68613 3.54186 9.3956 4.24327 9.3956 4.97462C9.3956 5.70598 9.68613 6.40738 10.2033 6.92453C10.7204 7.44167 11.4218 7.7322 12.1532 7.7322ZM4.98149 19.8537C5.71284 19.8537 6.41425 19.5631 6.93139 19.046C7.44854 18.5288 7.73907 17.8274 7.73907 17.0961C7.73907 16.3647 7.44854 15.6633 6.93139 15.1462C6.41425 14.629 5.71284 14.3385 4.98149 14.3385C4.25013 14.3385 3.54873 14.629 3.03158 15.1462C2.51444 15.6633 2.22391 16.3647 2.22391 17.0961C2.22391 17.8274 2.51444 18.5288 3.03158 19.046C3.54873 19.5631 4.25013 19.8537 4.98149 19.8537ZM19.2058 19.8537C19.9372 19.8537 20.6386 19.5631 21.1557 19.046C21.6729 18.5288 21.9634 17.8274 21.9634 17.0961C21.9634 16.3647 21.6729 15.6633 21.1557 15.1462C20.6386 14.629 19.9372 14.3385 19.2058 14.3385C18.4745 14.3385 17.7731 14.629 17.2559 15.1462C16.7388 15.6633 16.4483 16.3647 16.4483 17.0961C16.4483 17.8274 16.7388 18.5288 17.2559 19.046C17.7731 19.5631 18.4745 19.8537 19.2058 19.8537Z" stroke="#7A7A7A" stroke-width="1.5" stroke-linecap="round" stroke-linejoin="round"/>
</g>
</svg>
