<svg width="19" height="19" viewBox="0 0 19 19" fill="none" xmlns="http://www.w3.org/2000/svg">
<path d="M11.2753 1.55593C11.3008 1.46075 11.3447 1.37151 11.4047 1.29333C11.4647 1.21514 11.5394 1.14954 11.6247 1.10026C11.7101 1.05098 11.8043 1.019 11.9019 1.00614C11.9996 0.993278 12.0989 0.999791 12.1941 1.02531C13.5844 1.38807 14.853 2.11491 15.869 3.13096C16.8851 4.14702 17.6119 5.41556 17.9747 6.80593C18.0002 6.9011 18.0067 7.00036 17.9939 7.09805C17.981 7.19573 17.949 7.28993 17.8997 7.37525C17.8505 7.46057 17.7849 7.53534 17.7067 7.5953C17.6285 7.65526 17.5392 7.69922 17.4441 7.72468C17.3807 7.74132 17.3155 7.74983 17.25 7.74999C17.0849 7.75004 16.9243 7.69558 16.7933 7.59506C16.6622 7.49454 16.568 7.35358 16.5253 7.19406C16.2296 6.05887 15.6365 5.0231 14.8071 4.19353C13.9777 3.36397 12.942 2.77062 11.8069 2.47468C11.7116 2.44932 11.6223 2.40543 11.544 2.34552C11.4657 2.2856 11.4 2.21084 11.3506 2.12551C11.3012 2.04018 11.2692 1.94595 11.2563 1.84822C11.2433 1.75048 11.2498 1.65116 11.2753 1.55593ZM11.0569 5.47468C12.3497 5.81968 13.1803 6.65124 13.5253 7.94406C13.568 8.10358 13.6622 8.24454 13.7933 8.34506C13.9243 8.44558 14.0849 8.50004 14.25 8.49999C14.3155 8.49983 14.3807 8.49132 14.4441 8.47468C14.5392 8.44922 14.6285 8.40526 14.7067 8.3453C14.7849 8.28534 14.8505 8.21057 14.8997 8.12525C14.949 8.03993 14.981 7.94573 14.9939 7.84805C15.0067 7.75036 15.0002 7.6511 14.9747 7.55593C14.4947 5.75968 13.2403 4.50531 11.4441 4.02531C11.3489 3.99988 11.2497 3.99345 11.152 4.00638C11.0543 4.01932 10.9602 4.05135 10.8749 4.10067C10.7897 4.14999 10.7149 4.21562 10.655 4.29381C10.5951 4.372 10.5512 4.46123 10.5258 4.5564C10.5004 4.65157 10.4939 4.75081 10.5069 4.84846C10.5198 4.94611 10.5518 5.04026 10.6011 5.12553C10.6505 5.2108 10.7161 5.28553 10.7943 5.34543C10.8725 5.40534 10.9617 5.44926 11.0569 5.47468ZM17.8472 12.8556L13.4306 10.8766L13.4184 10.8709C13.1892 10.7729 12.939 10.7335 12.6907 10.7564C12.4424 10.7793 12.2037 10.8638 11.9963 11.0022C11.9718 11.0183 11.9483 11.0358 11.9259 11.0547L9.64406 13C8.19844 12.2978 6.70594 10.8166 6.00375 9.38968L7.95188 7.07312C7.97063 7.04968 7.98844 7.02624 8.00531 7.00093C8.14071 6.79403 8.22287 6.55686 8.24446 6.31053C8.26605 6.0642 8.22641 5.81636 8.12906 5.58906V5.57781L6.14438 1.15374C6.01569 0.856804 5.79443 0.609445 5.51361 0.448592C5.2328 0.287739 4.90749 0.222019 4.58625 0.261243C3.31591 0.428406 2.14986 1.05228 1.30588 2.01633C0.461895 2.98039 -0.002296 4.2187 8.53707e-07 5.49999C8.53707e-07 12.9437 6.05625 19 13.5 19C14.7813 19.0023 16.0196 18.5381 16.9837 17.6941C17.9477 16.8501 18.5716 15.6841 18.7388 14.4137C18.778 14.0926 18.7125 13.7674 18.5518 13.4866C18.3911 13.2058 18.144 12.9845 17.8472 12.8556Z" fill="#329993"/>
</svg>
