<svg width="54" height="56" viewBox="0 0 54 56" fill="none" xmlns="http://www.w3.org/2000/svg">
<g clip-path="url(#clip0_2_262)">
<rect width="54" height="56" rx="27" fill="#1565D8"/>
</g>
<path d="M27.3532 34.6032L28.047 33.9094C28.3469 33.6125 28.3407 33.1282 28.0345 32.8375L24.2688 29.2501H33.2501C33.6657 29.2501 34.0001 28.9157 34.0001 28.5001V27.5001C34.0001 27.0844 33.6657 26.7501 33.2501 26.7501H24.2688L28.0345 23.1626C28.3376 22.872 28.3438 22.3876 28.047 22.0907L27.3532 21.397C27.0626 21.1032 26.5876 21.1032 26.2939 21.397L20.2189 27.4719C19.9251 27.7626 19.9251 28.2375 20.2189 28.5313L26.2939 34.6032C26.5845 34.8969 27.0595 34.8969 27.3532 34.6032Z" fill="white"/>
<defs>
<clipPath id="clip0_2_262">
<rect width="54" height="56" fill="white"/>
</clipPath>
</defs>
</svg>
