<svg width="24" height="24" viewBox="0 0 24 24" fill="none" xmlns="http://www.w3.org/2000/svg">
<path d="M7.52878 13.3985L10.326 10.6012M10.326 13.3985L7.52878 10.6012M15.871 9.01412V20.2825C15.871 21.7208 14.8393 22.3259 13.5796 21.6315L9.68128 19.4592C9.26466 19.2311 8.59015 19.2311 8.17353 19.4592L4.27523 21.6315C3.01547 22.3259 1.98386 21.7208 1.98386 20.2825V9.01412C1.98386 7.31791 3.37257 5.9292 5.06878 5.9292H12.786C14.4822 5.9292 15.871 7.31791 15.871 9.01412Z" stroke="#7A7A7A" stroke-width="1.5" stroke-linecap="round" stroke-linejoin="round"/>
<path d="M21.8226 5.16256V16.4309C21.8226 17.8692 20.791 18.4743 19.5312 17.78L15.871 15.7366V9.01127C15.871 7.31506 14.4823 5.92635 12.7861 5.92635H7.93549V5.16256C7.93549 3.46635 9.3242 2.07764 11.0204 2.07764H18.7377C20.4339 2.07764 21.8226 3.46635 21.8226 5.16256Z" stroke="#7A7A7A" stroke-width="1.5" stroke-linecap="round" stroke-linejoin="round"/>
</svg>
