<svg width="24" height="19" viewBox="0 0 24 19" fill="none" xmlns="http://www.w3.org/2000/svg">
<g filter="url(#filter0_d_10_608)">
<path d="M18 1.75V12.25C18 12.6478 17.842 13.0294 17.5607 13.3107C17.2794 13.592 16.8978 13.75 16.5 13.75H3C2.60218 13.75 2.22064 13.592 1.93934 13.3107C1.65804 13.0294 1.5 12.6478 1.5 12.25V1.75C1.5 1.35218 1.65804 0.970644 1.93934 0.68934C2.22064 0.408035 2.60218 0.25 3 0.25H16.5C16.8978 0.25 17.2794 0.408035 17.5607 0.68934C17.842 0.970644 18 1.35218 18 1.75ZM23.4375 1.77344C23.3317 1.74755 23.2216 1.74435 23.1145 1.76406C23.0073 1.78378 22.9056 1.82595 22.8159 1.88781L19.6669 3.98688C19.6155 4.02115 19.5734 4.06758 19.5443 4.12204C19.5152 4.1765 19.5 4.23731 19.5 4.29906V9.70094C19.5 9.76269 19.5152 9.8235 19.5443 9.87796C19.5734 9.93242 19.6155 9.97885 19.6669 10.0131L22.8337 12.1244C22.9523 12.2034 23.0909 12.2471 23.2333 12.2503C23.3758 12.2534 23.5162 12.2159 23.6381 12.1422C23.7509 12.0705 23.8434 11.971 23.9068 11.8533C23.9702 11.7356 24.0022 11.6036 24 11.47V2.5C24.0001 2.33366 23.9449 2.17202 23.843 2.04049C23.7412 1.90897 23.5986 1.81502 23.4375 1.77344Z" fill="#329993"/>
</g>
<defs>
<filter id="filter0_d_10_608" x="-2.5" y="0.25" width="30.5001" height="21.5" filterUnits="userSpaceOnUse" color-interpolation-filters="sRGB">
<feFlood flood-opacity="0" result="BackgroundImageFix"/>
<feColorMatrix in="SourceAlpha" type="matrix" values="0 0 0 0 0 0 0 0 0 0 0 0 0 0 0 0 0 0 127 0" result="hardAlpha"/>
<feOffset dy="4"/>
<feGaussianBlur stdDeviation="2"/>
<feComposite in2="hardAlpha" operator="out"/>
<feColorMatrix type="matrix" values="0 0 0 0 0 0 0 0 0 0 0 0 0 0 0 0 0 0 0.25 0"/>
<feBlend mode="normal" in2="BackgroundImageFix" result="effect1_dropShadow_10_608"/>
<feBlend mode="normal" in="SourceGraphic" in2="effect1_dropShadow_10_608" result="shape"/>
</filter>
</defs>
</svg>
